<?xml version="1.0" standalone="no"?>
<svg xmlns="http://www.w3.org/2000/svg" width="48" height="48"><rect width="48" height="48" opacity="0"></rect><g mask="url(#hms_mask_0)"><path d="M4.7 9.41Q4.27 9.94 4.34 10.54Q4.42 11.14 4.94 11.52Q5.47 11.95 6.07 11.88Q6.67 11.81 7.06 11.28L7.06 11.28Q8.74 9.12 10.8 7.58L10.9 7.49Q11.38 7.06 11.4 6.5Q11.42 5.95 11.04 5.42Q10.66 4.9 10.03 4.82Q9.41 4.75 8.88 5.18Q6.67 6.91 4.7 9.41ZM4.99 24.48Q4.99 27.74 6.22 30.98Q7.44 34.22 9.5 36.77L6.91 39.41L6.86 39.46Q6.29 40.13 6.17 40.75Q6.05 41.38 6.62 41.9Q7.15 42.43 7.78 42.34Q8.4 42.24 9.02 41.66L9.07 41.62L11.71 38.98Q14.26 41.04 17.5 42.26Q20.74 43.49 24 43.49Q27.26 43.49 30.5 42.26Q33.74 41.04 36.29 38.98L38.93 41.62Q39.55 42.24 40.2 42.34Q40.85 42.43 41.38 41.9Q41.95 41.38 41.86 40.85Q41.76 40.32 41.14 39.65L41.09 39.6L38.5 36.96Q40.51 34.42 41.74 31.1Q42.96 27.79 42.96 24.48Q42.96 19.34 40.42 14.98Q37.87 10.61 33.5 8.06Q29.14 5.52 24 5.52Q18.82 5.52 14.45 8.06Q10.08 10.61 7.54 14.98Q4.99 19.34 4.99 24.48ZM36.96 5.42Q36.58 5.9 36.6 6.43Q36.62 6.96 37.01 7.39L37.2 7.58Q39.26 9.12 40.94 11.28L41.09 11.42Q41.47 11.86 42.02 11.88Q42.58 11.9 43.06 11.52Q43.58 11.14 43.66 10.54Q43.73 9.94 43.3 9.41Q41.33 6.91 39.12 5.18Q38.59 4.75 37.97 4.82Q37.34 4.9 36.96 5.42Z" fill="rgba(0,0,0,0.9019607843137255)"></path></g><defs><mask id="hms_mask_0"><rect width="48" height="48" fill="#ffffff"></rect><g><path d="M21.31 14.35Q21.31 13.68 21.74 13.27Q22.18 12.86 22.85 12.86Q23.52 12.86 23.95 13.27Q24.38 13.68 24.38 14.35L24.38 24.72L31.68 32.06L31.87 32.3Q32.21 32.78 32.16 33.29Q32.11 33.79 31.68 34.22Q31.2 34.7 30.62 34.7Q30.05 34.7 29.57 34.22L21.79 26.45Q21.55 26.21 21.43 25.94Q21.31 25.68 21.31 25.34L21.31 14.35Z" fill="#000000"></path></g></mask></defs></svg>