<?xml version="1.0" standalone="no"?>
<svg xmlns="http://www.w3.org/2000/svg" width="24" height="24"><rect width="24" height="24" opacity="0"></rect><g><path d="M12.94 6Q12.72 5.78 12.41 5.78Q12.1 5.78 11.88 6Q11.64 6.24 11.64 6.55Q11.64 6.86 11.88 7.08L15.98 11.18L6.79 11.18Q6.48 11.18 6.26 11.4Q6.05 11.62 6.05 11.93Q6.05 12.24 6.26 12.47Q6.48 12.7 6.79 12.7L15.94 12.7L11.88 16.73Q11.66 16.97 11.66 17.28Q11.66 17.59 11.88 17.78Q12.1 18.02 12.41 18.02Q12.72 18.02 12.94 17.78L17.95 12.79Q18.31 12.43 18.31 11.92Q18.31 11.4 17.95 11.04L12.94 6Z" fill="rgba(0,0,0,1)"></path><path d="M12 1.01Q9.02 1.01 6.49 2.48Q3.96 3.96 2.48 6.49Q1.01 9.02 1.01 12Q1.01 14.98 2.48 17.51Q3.96 20.04 6.49 21.52Q9.02 22.99 12 22.99Q14.98 22.99 17.51 21.52Q20.04 20.04 21.52 17.51Q22.99 14.98 22.99 12Q22.99 9.02 21.52 6.49Q20.04 3.96 17.51 2.48Q14.98 1.01 12 1.01ZM12 21.5Q9.43 21.5 7.25 20.22Q5.06 18.94 3.78 16.75Q2.5 14.57 2.5 12Q2.5 9.43 3.78 7.25Q5.06 5.06 7.25 3.78Q9.43 2.5 12 2.5Q14.57 2.5 16.75 3.78Q18.94 5.06 20.22 7.25Q21.5 9.43 21.5 12Q21.5 14.57 20.22 16.75Q18.94 18.94 16.75 20.22Q14.57 21.5 12 21.5Z" fill="rgba(0,0,0,1)"></path></g></svg>