<?xml version="1.0" standalone="no"?>
<svg xmlns="http://www.w3.org/2000/svg" width="48" height="48"><rect width="48" height="48" opacity="0"></rect><g><path d="M30 4.51Q29.38 4.51 28.94 4.94Q28.51 5.38 28.51 6Q28.51 6.62 28.94 7.06Q29.38 7.49 30 7.49L38.4 7.49L21.31 24.62Q20.88 25.06 20.88 25.68Q20.88 26.3 21.31 26.74Q21.74 27.17 22.37 27.17Q22.99 27.17 23.42 26.74L40.51 9.65L40.51 18Q40.51 18.62 40.94 19.06Q41.38 19.49 42 19.49Q42.62 19.49 43.06 19.06Q43.49 18.62 43.49 18L43.49 6.86Q43.49 5.9 42.79 5.21Q42.1 4.51 41.14 4.51L30 4.51Z" fill="rgba(0,0,0,1)"></path><path d="M36 43.49Q38.02 43.49 39.74 42.48Q41.47 41.47 42.48 39.74Q43.49 38.02 43.49 36L43.49 25.78Q43.49 25.15 43.06 24.72Q42.62 24.29 42 24.29Q41.38 24.29 40.94 24.72Q40.51 25.15 40.51 25.78L40.51 36Q40.51 37.87 39.19 39.19Q37.87 40.51 36 40.51L12 40.51Q10.13 40.51 8.81 39.19Q7.49 37.87 7.49 36L7.49 12Q7.49 10.13 8.81 8.81Q10.13 7.49 12 7.49L22.13 7.49Q22.75 7.49 23.18 7.06Q23.62 6.62 23.62 6Q23.62 5.38 23.18 4.94Q22.75 4.51 22.13 4.51L12 4.51Q9.94 4.51 8.21 5.52Q6.48 6.53 5.47 8.26Q4.46 9.98 4.46 12L4.46 36Q4.46 38.02 5.47 39.74Q6.48 41.47 8.21 42.48Q9.94 43.49 12 43.49L36 43.49Z" fill="rgba(0,0,0,1)"></path></g></svg>