<?xml version="1.0" standalone="no"?>
<svg xmlns="http://www.w3.org/2000/svg" width="48" height="48"><rect width="48" height="48" opacity="0"></rect><g><path d="M18.86 40.13Q18.67 40.13 18.55 40.25Q18.43 40.37 18.43 40.56Q18.62 42.72 20.26 44.23Q21.89 45.74 24.14 45.74Q26.35 45.74 27.98 44.23Q29.62 42.72 29.76 40.56Q29.76 40.37 29.66 40.25Q29.57 40.13 29.38 40.13L18.86 40.13ZM9.6 34.75Q9.46 34.75 9.34 34.66Q9.22 34.56 9.12 34.46Q9.12 34.37 9.07 34.32Q9.07 34.08 9.17 33.94L10.46 32.3Q11.86 30.53 11.86 28.32L11.86 19.78Q11.86 18.77 12 17.86L9.5 15.36Q8.83 17.62 8.83 19.82L8.83 28.32Q8.83 28.94 8.66 29.47Q8.5 30 8.11 30.48L6.82 32.11Q6.19 32.93 6.1 33.91Q6 34.9 6.43 35.81Q6.91 36.72 7.75 37.25Q8.59 37.78 9.6 37.78L31.97 37.78L28.94 34.75L9.6 34.75ZM41.76 35.81Q42.19 34.85 42.1 33.86Q42 32.88 41.38 32.06L40.13 30.48Q39.79 30 39.6 29.47Q39.41 28.94 39.41 28.32L39.41 19.58Q39.41 16.51 38.18 13.73Q36.96 10.94 34.75 8.86Q32.54 6.77 29.66 5.71L29.28 5.62Q28.94 5.52 28.61 5.42Q28.22 3.98 26.98 3.07Q25.73 2.16 24.14 2.16Q22.51 2.16 21.26 3.1Q20.02 4.03 19.63 5.42Q16.99 6.24 15.22 7.58Q14.74 7.92 14.26 8.3L16.37 10.42Q16.66 10.18 16.94 9.98Q20.16 7.73 24.1 7.73Q26.3 7.73 28.66 8.54Q32.11 9.74 34.25 12.79Q36.38 15.84 36.38 19.54L36.38 28.32Q36.38 29.71 36.96 31.01L38.74 32.78Q38.98 33.02 39.12 33.17Q39.26 33.31 39.5 33.55L41.76 35.81Z" fill="rgba(25,25,25,1)"></path></g><g><path d="M44.35 44.35Q44.78 43.92 44.78 43.3Q44.78 42.67 44.35 42.24L5.66 3.55Q5.23 3.07 4.61 3.07Q3.98 3.07 3.55 3.55Q3.12 3.94 3.12 4.58Q3.12 5.23 3.55 5.62L42.24 44.35Q42.67 44.78 43.3 44.78Q43.92 44.78 44.35 44.35Z" fill="rgba(10,89,247,1)"></path></g></svg>