<?xml version="1.0" standalone="no"?>
<svg xmlns="http://www.w3.org/2000/svg" width="48" height="48"><rect width="48" height="48" opacity="0"></rect><g><path d="M38.02 7.01Q39.26 7.01 40.13 7.87Q40.99 8.74 40.99 9.98L40.99 38.02Q40.99 39.22 40.13 40.1Q39.26 40.99 38.02 40.99L9.98 40.99Q8.78 40.99 7.9 40.1Q7.01 39.22 7.01 38.02L7.01 9.98Q7.01 8.74 7.9 7.87Q8.78 7.01 9.98 7.01L38.02 7.01ZM9.98 3.98Q8.35 3.98 6.98 4.8Q5.62 5.62 4.8 6.98Q3.98 8.35 3.98 9.98L3.98 38.02Q3.98 39.65 4.8 41.02Q5.62 42.38 6.98 43.2Q8.35 44.02 9.98 44.02L38.02 44.02Q39.65 44.02 41.02 43.2Q42.38 42.38 43.2 41.02Q44.02 39.65 44.02 38.02L44.02 9.98Q44.02 8.35 43.2 6.98Q42.38 5.62 41.02 4.8Q39.65 3.98 38.02 3.98L9.98 3.98Z" fill="rgba(0,0,0,0.9019607843137255)"></path><path d="M20.98 32.54Q21.7 32.54 22.42 32.26Q23.14 31.97 23.71 31.39L36.1 19.01Q36.53 18.58 36.53 17.95Q36.53 17.33 36.1 16.9Q35.66 16.46 35.04 16.46Q34.42 16.46 33.94 16.9L21.6 29.28Q21.31 29.52 20.95 29.52Q20.59 29.52 20.3 29.28L14.06 22.99Q13.63 22.56 13.01 22.56Q12.38 22.56 11.95 22.99Q11.52 23.42 11.52 24.05Q11.52 24.67 11.95 25.1L18.19 31.39Q18.77 31.97 19.46 32.26Q20.16 32.54 20.98 32.54Z" fill="rgba(0,0,0,0.9019607843137255)"></path></g></svg>