<?xml version="1.0" standalone="no"?>
<svg xmlns="http://www.w3.org/2000/svg" width="48" height="48"><rect width="48" height="48" opacity="0"></rect><g><path d="M32.54 41.95Q34.03 41.95 35.28 41.21Q36.53 40.46 37.27 39.22Q38.02 37.97 38.02 36.48L38.02 18.72Q38.02 17.23 37.27 15.96Q36.53 14.69 35.28 13.94Q34.03 13.2 32.54 13.2L8.45 13.2Q6.96 13.2 5.71 13.94Q4.46 14.69 3.72 15.96Q2.98 17.23 2.98 18.72L2.98 36.48Q2.98 37.97 3.72 39.22Q4.46 40.46 5.71 41.21Q6.96 41.95 8.45 41.95L32.54 41.95ZM32.54 16.22Q33.55 16.22 34.3 16.94Q35.04 17.66 35.04 18.72L35.04 36.48Q35.04 37.49 34.3 38.23Q33.55 38.98 32.54 38.98L8.45 38.98Q7.44 38.98 6.7 38.23Q5.95 37.49 5.95 36.48L5.95 18.72Q5.95 17.66 6.7 16.94Q7.44 16.22 8.45 16.22L32.54 16.22Z" fill="rgba(0,0,0,1)"></path><path d="M15.98 6Q14.45 6 13.1 6.58Q11.76 7.15 10.73 8.21Q9.7 9.26 9.12 10.61L12.62 10.61Q13.25 9.89 14.11 9.46Q14.98 9.02 15.98 9.02L37.58 9.02Q39.41 9.02 40.7 10.32Q42 11.62 42 13.44L42 28.46Q42 29.42 41.64 30.24Q41.28 31.06 40.61 31.68L40.61 35.23Q41.9 34.66 42.91 33.65Q43.92 32.64 44.47 31.3Q45.02 29.95 45.02 28.46L45.02 13.44Q45.02 11.42 44.02 9.72Q43.01 8.02 41.3 7.01Q39.6 6 37.58 6L15.98 6Z" fill="rgba(0,0,0,1)"></path></g></svg>