<?xml version="1.0" standalone="no"?><!DOCTYPE svg PUBLIC "-//W3C//DTD SVG 1.1//EN" "http://www.w3.org/Graphics/SVG/1.1/DTD/svg11.dtd"><svg t="1760757514356" class="icon" viewBox="0 0 1024 1024" version="1.1" xmlns="http://www.w3.org/2000/svg" p-id="11286" xmlns:xlink="http://www.w3.org/1999/xlink" width="200" height="200"><path d="M146.00039 147.384212h731.942155v512.370922H146.00039zM918.415782 0H105.584218A105.569952 105.569952 0 0 0 0.199727 105.569952v594.330296a105.569952 105.569952 0 0 0 105.384491 105.569952H361.134832v145.800663H180.96687a36.307504 36.307504 0 0 0-36.307504 36.307504 36.307504 36.307504 0 0 0 36.307504 36.307503h659.912062a36.307504 36.307504 0 1 0 0-72.615007H658.585305V805.584329h259.830477a105.569952 105.569952 0 0 0 105.384491-105.569951V105.569952a105.569952 105.569952 0 0 0-105.384491-105.569952z m34.153306 733.568503H73.028727V74.9404h879.526095V733.568503z m0 0" fill="#000000" p-id="11287"></path></svg>