<?xml version="1.0" standalone="no"?>
<svg xmlns="http://www.w3.org/2000/svg" width="48" height="48"><rect width="48" height="48" opacity="0"></rect><g><path d="M5.86 40.03Q5.86 41.66 6.65 43.03Q7.44 44.4 8.83 45.22Q10.22 46.03 11.86 46.03L35.81 46.03Q37.44 46.03 38.83 45.22Q40.22 44.4 41.02 43.03Q41.81 41.66 41.81 40.03L41.81 29.86L38.83 32.83L38.83 40.03Q38.83 41.28 37.94 42.14Q37.06 43.01 35.81 43.01L11.86 43.01Q10.61 43.01 9.72 42.14Q8.83 41.28 8.83 40.03L8.83 8.02Q8.83 6.77 9.72 5.88Q10.61 4.99 11.86 4.99L35.81 4.99Q37.06 4.99 37.94 5.88Q38.83 6.77 38.83 8.02L38.83 20.11L41.81 17.14L41.81 8.02Q41.81 6.38 41.02 5.02Q40.22 3.65 38.83 2.83Q37.44 2.02 35.81 2.02L11.86 2.02Q10.22 2.02 8.83 2.83Q7.44 3.65 6.65 5.02Q5.86 6.38 5.86 8.02L5.86 40.03ZM32.78 15.89Q33.41 15.89 33.84 15.46Q34.27 15.02 34.27 14.4Q34.27 13.78 33.84 13.34Q33.41 12.91 32.78 12.91L14.88 12.91Q14.26 12.91 13.82 13.34Q13.39 13.78 13.39 14.4Q13.39 15.02 13.82 15.46Q14.26 15.89 14.88 15.89L32.78 15.89ZM13.39 22.7Q13.39 23.33 13.82 23.78Q14.26 24.24 14.88 24.24L32.78 24.24Q33.41 24.24 33.84 23.78Q34.27 23.33 34.27 22.7Q34.27 22.08 33.84 21.65Q33.41 21.22 32.78 21.22L14.88 21.22Q14.26 21.22 13.82 21.65Q13.39 22.08 13.39 22.7ZM13.39 31.06Q13.39 31.68 13.82 32.11Q14.26 32.54 14.88 32.54L26.4 32.54L29.28 29.52L14.88 29.52Q14.26 29.52 13.82 29.98Q13.39 30.43 13.39 31.06Z" fill="rgba(0,0,0,1)"></path><path d="M25.97 38.45Q25.82 38.69 25.92 38.95Q26.02 39.22 26.28 39.31Q26.54 39.41 26.78 39.26L30.38 37.25Q30.77 37.06 31.44 36.58L28.7 33.84Q28.46 34.22 28.18 34.61L27.98 34.9L25.97 38.45ZM47.04 18.34Q46.42 17.66 45.5 17.66Q44.59 17.66 43.97 18.34L30.19 32.02Q29.9 32.3 29.62 32.64L32.64 35.62Q32.74 35.52 32.83 35.42Q32.93 35.33 33.02 35.23Q33.12 35.14 33.22 35.04L47.04 21.36Q47.66 20.69 47.66 19.82Q47.66 18.96 47.04 18.34Z" fill="rgba(0,0,0,1)"></path></g></svg>