<?xml version="1.0" standalone="no"?>
<svg xmlns="http://www.w3.org/2000/svg" width="49" height="48"><rect width="49" height="48" opacity="0"></rect><g mask="url(#hms_mask_0)"><path d="M35.71 43.2Q37.72 43.2 39.45 42.19Q41.18 41.18 42.19 39.46Q43.2 37.73 43.2 35.71L43.2 12.72Q43.2 10.7 42.19 8.98Q41.18 7.25 39.45 6.24Q37.72 5.23 35.71 5.23L12.72 5.23Q10.65 5.23 8.92 6.24Q7.2 7.25 6.19 8.98Q5.18 10.7 5.18 12.72L5.18 35.71Q5.18 37.73 6.19 39.46Q7.2 41.18 8.92 42.19Q10.65 43.2 12.72 43.2L35.71 43.2ZM35.71 8.21Q37.53 8.21 38.88 9.53Q40.22 10.85 40.22 12.72L40.22 35.66Q40.22 37.54 38.88 38.86Q37.53 40.18 35.71 40.18L12.72 40.18Q10.84 40.18 9.52 38.86Q8.2 37.54 8.2 35.66L8.2 12.72Q8.2 10.85 9.52 9.53Q10.84 8.21 12.72 8.21L35.71 8.21Z" fill="rgba(0,0,0,1)"></path></g><defs><mask id="hms_mask_0"><rect width="49" height="48" fill="#ffffff"></rect><g><path d="M47.23 1.3Q46.6 0.67 45.76 0.34Q44.92 0 44.01 0Q43.1 0 42.26 0.34Q41.42 0.67 40.8 1.3L21.69 20.45Q21.26 20.88 21.02 21.31L18.28 26.16Q17.9 26.93 17.9 27.72Q17.9 28.51 18.33 29.14Q18.72 29.81 19.41 30.22Q20.11 30.62 20.88 30.62Q21.6 30.62 22.27 30.24L27.16 27.46Q27.6 27.26 28.08 26.78L47.23 7.68Q48.52 6.34 48.52 4.49Q48.52 2.64 47.23 1.3Z" fill="#000000"></path></g></mask></defs><g><path d="M20.3 27.41Q20.16 27.65 20.25 27.89Q20.35 28.13 20.61 28.22Q20.88 28.32 21.12 28.22L24.72 26.21Q25.1 25.97 25.44 25.73L25.77 25.49L23.04 22.8L22.75 23.23Q22.6 23.42 22.53 23.54Q22.46 23.66 22.32 23.86L20.3 27.41ZM45.55 2.98Q44.92 2.35 44.04 2.35Q43.15 2.35 42.52 2.98L24.52 20.98L24.33 21.17Q24.19 21.36 24 21.6L26.92 24.53Q27.16 24.38 27.55 24L45.55 6Q46.22 5.38 46.22 4.49Q46.22 3.6 45.55 2.98Z" fill="rgba(0,0,0,1)"></path></g></svg>