<?xml version="1.0" standalone="no"?>
<svg xmlns="http://www.w3.org/2000/svg" width="48" height="48"><rect width="48" height="48" opacity="0"></rect><g><path d="M32.5 4.18Q31.34 3.07 29.78 2.66Q28.22 2.26 26.69 2.64Q25.15 3.02 24 4.18L4.18 24Q3.02 25.15 2.64 26.71Q2.26 28.27 2.64 29.81Q3.02 31.34 4.18 32.5L15.5 43.78Q16.7 44.98 18.26 45.36Q19.82 45.74 21.36 45.34Q22.9 44.93 24 43.78L43.78 24Q44.93 22.85 45.34 21.29Q45.74 19.73 45.34 18.19Q44.93 16.66 43.78 15.5L32.5 4.18ZM21.89 41.66Q20.98 42.58 19.75 42.58Q18.53 42.58 17.62 41.66L6.34 30.34Q5.42 29.47 5.42 28.22Q5.42 26.98 6.34 26.11L10.46 21.94L26.06 37.54L21.89 41.66ZM28.18 35.38L12.62 19.82L26.11 6.34Q27.02 5.42 28.25 5.42Q29.47 5.42 30.38 6.34L41.66 17.62Q42.58 18.53 42.58 19.75Q42.58 20.98 41.66 21.89Z" fill="rgba(0,0,0,0.9019607843137255)"></path><path d="M42.38 44.83Q43.01 44.83 43.46 44.4Q43.92 43.97 43.92 43.34Q43.92 42.72 43.46 42.29Q43.01 41.86 42.38 41.86L31.92 41.86Q31.3 41.86 30.86 42.29Q30.43 42.72 30.43 43.34Q30.43 43.97 30.86 44.4Q31.3 44.83 31.92 44.83L42.38 44.83Z" fill="rgba(0,0,0,0.9019607843137255)"></path></g></svg>