<?xml version="1.0" standalone="no"?><!DOCTYPE svg PUBLIC "-//W3C//DTD SVG 1.1//EN" "http://www.w3.org/Graphics/SVG/1.1/DTD/svg11.dtd"><svg t="1761214336319" class="icon" viewBox="0 0 1024 1024" version="1.1" xmlns="http://www.w3.org/2000/svg" p-id="7831" xmlns:xlink="http://www.w3.org/1999/xlink" width="200" height="200"><path d="M866.9 295.3h-150V158.8c0-38-30.9-69-69-69H153.6c-38 0-69 30.9-69 69v428.8c0 38 30.9 69 69 69h461.3l-73.6 74.2L591 780l109.4-110.2 49.3-49.7-49.7-49.2-110.2-109.5-49.3 49.7 76 75.5H154.6V159.8h492.2v135.5H429c-43 0-78 35-78 78v81.4h70v-81.4c0-4.4 3.6-8 8-8h437.9c4.4 0 8 3.6 8 8v489.8c0 4.4-3.6 8-8 8H429c-4.4 0-8-3.6-8-8v-71.6h-70v71.6c0 43 35 78 78 78h437.9c43 0 78-35 78-78V373.3c0-43-35-78-78-78z" p-id="7832"></path></svg>