<?xml version="1.0" standalone="no"?><!DOCTYPE svg PUBLIC "-//W3C//DTD SVG 1.1//EN" "http://www.w3.org/Graphics/SVG/1.1/DTD/svg11.dtd"><svg t="1761813423694" class="icon" viewBox="0 0 1024 1024" version="1.1" xmlns="http://www.w3.org/2000/svg" p-id="56140" xmlns:xlink="http://www.w3.org/1999/xlink" width="256" height="256"><path d="M167.253333 742.4h723.626667l92.16 126.293333c34.133333 47.786667 15.36 87.04-44.373333 87.04H110.933333C52.906667 955.733333 34.133333 918.186667 68.266667 870.4l98.986666-128z" fill="#DAE9FF" p-id="56141"></path><path d="M266.24 131.413333h462.506667c59.733333 0 107.52 47.786667 107.52 107.52v517.12c0 59.733333-47.786667 107.52-107.52 107.52H266.24c-59.733333 0-107.52-47.786667-107.52-107.52V238.933333c0-59.733333 47.786667-107.52 107.52-107.52z" fill="#DAE9FF" p-id="56142"></path><path d="M235.52 131.413333H699.733333c59.733333 0 107.52 47.786667 107.52 107.52v517.12c0 59.733333-47.786667 107.52-107.52 107.52H235.52c-59.733333 0-107.52-47.786667-107.52-107.52V238.933333c0-59.733333 47.786667-107.52 107.52-107.52z" fill="#3889FF" p-id="56143"></path><path d="M957.44 887.466667l-17.066667-17.066667c20.48-27.306667 32.426667-61.44 32.426667-98.986667 0-92.16-75.093333-167.253333-168.96-167.253333s-168.96 75.093333-168.96 167.253333 75.093333 167.253333 168.96 167.253334c37.546667 0 61.44-8.533333 90.453333-29.013334l18.773334 17.066667c10.24 10.24 30.72 10.24 39.253333 0 10.24-8.533333 15.36-25.6 5.12-39.253333z" fill="#DAE9FF" p-id="56144"></path><path d="M931.84 877.226667l-22.186667-22.186667c20.48-27.306667 32.426667-61.44 32.426667-98.986667 0-92.16-75.093333-167.253333-168.96-167.253333s-168.96 75.093333-168.96 167.253333 75.093333 167.253333 168.96 167.253334c37.546667 0 71.68-13.653333 98.986667-32.426667l22.186666 22.186667c10.24 10.24 25.6 10.24 35.84 0s10.24-25.6 1.706667-35.84z" fill="#FB560A" p-id="56145"></path><path d="M667.306667 754.346667a105.813333 104.106667 0 1 0 211.626666 0 105.813333 104.106667 0 1 0-211.626666 0Z" fill="#FFFFFF" p-id="56146"></path><path d="M832.853333 790.186667h-3.413333c-8.533333-1.706667-13.653333-10.24-11.946667-18.773334 1.706667-6.826667 3.413333-11.946667 3.413334-18.773333 0-11.946667-3.413333-22.186667-10.24-32.426667-5.12-6.826667-3.413333-17.066667 3.413333-22.186666s17.066667-3.413333 22.186667 3.413333c10.24 15.36 17.066667 32.426667 17.066666 49.493333 0 10.24-1.706667 18.773333-3.413333 25.6-3.413333 8.533333-10.24 13.653333-17.066667 13.653334z" fill="#FFD6C2" p-id="56147"></path><path d="M653.653333 360.106667H310.613333c-15.36 0-29.013333 11.946667-29.013333 27.306666s11.946667 27.306667 29.013333 27.306667h343.04c15.36 0 29.013333-11.946667 29.013334-27.306667 0-15.36-13.653333-27.306667-29.013334-27.306666z" fill="#DAE9FF" p-id="56148"></path><path d="M636.586667 344.746667h-341.333334c-15.36 0-29.013333 11.946667-29.013333 27.306666s11.946667 27.306667 29.013333 27.306667h341.333334c15.36 0 29.013333-11.946667 29.013333-27.306667-1.706667-15.36-13.653333-27.306667-29.013333-27.306666z" fill="#FFFFFF" p-id="56149"></path><path d="M651.946667 527.36h-341.333334c-15.36 0-29.013333 11.946667-29.013333 27.306667 0 15.36 11.946667 27.306667 29.013333 27.306666h341.333334c15.36 0 29.013333-11.946667 29.013333-27.306666-1.706667-13.653333-13.653333-27.306667-29.013333-27.306667z" fill="#DAE9FF" p-id="56150"></path><path d="M636.586667 513.706667h-341.333334c-15.36 0-29.013333 11.946667-29.013333 27.306666 0 15.36 11.946667 27.306667 29.013333 27.306667h341.333334c15.36 0 29.013333-11.946667 29.013333-27.306667-1.706667-15.36-13.653333-27.306667-29.013333-27.306666z" fill="#FFFFFF" p-id="56151"></path><path d="M370.346667 221.866667c-32.426667 0-58.026667-20.48-58.026667-44.373334v-1.706666c0-23.893333 25.6-44.373333 58.026667-44.373334H682.666667c3.413333 37.546667-15.36 63.146667-29.013334 73.386667s-32.426667 17.066667-47.786666 17.066667H370.346667z" fill="#2B72D9" p-id="56152"></path><path d="M587.093333 197.973333H354.986667c-30.72 0-56.32-25.6-56.32-56.32C298.666667 110.933333 324.266667 85.333333 354.986667 85.333333h232.106666c30.72 0 56.32 25.6 56.32 56.32v1.706667c0 15.36-6.826667 29.013333-17.066666 39.253333-10.24 10.24-23.893333 15.36-39.253334 15.36z" fill="#DAE9FF" p-id="56153"></path><path d="M783.36 706.56c8.533333 0 15.36-6.826667 15.36-15.36s-6.826667-15.36-15.36-15.36-15.36 6.826667-15.36 15.36 6.826667 15.36 15.36 15.36z" fill="#FFD6C2" p-id="56154"></path></svg>