<?xml version="1.0" standalone="no"?>
<svg xmlns="http://www.w3.org/2000/svg" width="48" height="48"><rect width="48" height="48" opacity="0"></rect><g><path d="M21.5 14.06Q21.5 15.07 22.22 15.82Q22.94 16.56 24 16.56Q25.06 16.56 25.78 15.82Q26.5 15.07 26.5 14.06Q26.5 13.01 25.78 12.26Q25.06 11.52 24 11.52Q22.94 11.52 22.22 12.26Q21.5 13.01 21.5 14.06ZM21.98 34.42Q21.98 35.23 22.58 35.83Q23.18 36.43 24 36.43Q24.82 36.43 25.42 35.83Q26.02 35.23 26.02 34.42L26.02 20.93Q26.02 20.11 25.42 19.54Q24.82 18.96 24 18.96Q23.18 18.96 22.58 19.54Q21.98 20.11 21.98 20.93L21.98 34.42Z" fill="rgba(0,0,0,1)"></path><path d="M24 45.98Q29.95 45.98 35.02 43.03Q40.08 40.08 43.03 35.02Q45.98 29.95 45.98 24Q45.98 18.05 43.03 12.98Q40.08 7.92 35.02 4.97Q29.95 2.02 24 2.02Q18.05 2.02 12.98 4.99Q7.92 7.97 4.97 13.01Q2.02 18.05 2.02 24Q2.02 29.95 4.97 34.99Q7.92 40.03 12.98 43.01Q18.05 45.98 24 45.98ZM4.99 24Q4.99 18.86 7.54 14.5Q10.08 10.13 14.45 7.56Q18.82 4.99 24 4.99Q29.14 4.99 33.5 7.56Q37.87 10.13 40.44 14.5Q43.01 18.86 43.01 24Q43.01 29.14 40.44 33.5Q37.87 37.87 33.5 40.44Q29.14 43.01 24 43.01Q18.82 43.01 14.45 40.44Q10.08 37.87 7.54 33.5Q4.99 29.14 4.99 24Z" fill="rgba(0,0,0,1)"></path></g></svg>