<?xml version="1.0" standalone="no"?>
<!DOCTYPE svg PUBLIC "-//W3C//DTD SVG 1.1//EN" "http://www.w3.org/Graphics/SVG/1.1/DTD/svg11.dtd"><svg t="1762151325502"
    class="icon" viewBox="0 0 1024 1024" version="1.1" xmlns="http://www.w3.org/2000/svg" p-id="35501"
    xmlns:xlink="http://www.w3.org/1999/xlink" width="256" height="256">
    <path
        d="M0 0m153.6 0l716.8 0q153.6 0 153.6 153.6l0 716.8q0 153.6-153.6 153.6l-716.8 0q-153.6 0-153.6-153.6l0-716.8q0-153.6 153.6-153.6Z"
        fill="#5088e7" p-id="35502"></path>
    <path
        d="M737.6 806.4h-438.4a28.416 28.416 0 0 1-28.4672-28.2368c0-15.5648 12.8384-28.224 28.4672-28.224H737.664a28.416 28.416 0 0 1 28.4672 28.224c0 15.5776-12.8384 28.2368-28.544 28.2368z m28.16-251.9424H618.0992a4.608 4.608 0 0 0-1.7792-0.384h-0.0768a34.6624 34.6624 0 0 1-34.816-34.5216c0-11.0464 5.1968-20.7872 13.312-27.1488 43.5456-25.7792 72.6272-72.96 72.6272-126.976C667.3664 283.8016 600.6144 217.6 518.3232 217.6c-82.304 0-148.9664 66.2016-148.9664 147.904 0 53.9392 29.1584 101.12 72.704 126.976a34.3808 34.3808 0 0 1 14.3104 27.84 34.5728 34.5728 0 0 1-29.696 34.1376H271.0272c-15.3088 0-27.84 12.4288-27.84 27.6224v82.7008c0 15.1936 12.5312 27.6224 27.84 27.6224h494.72c15.3088 0 27.84-12.4288 27.84-27.6224v-82.7008c0-15.1936-12.5312-27.6224-27.84-27.6224z"
        fill="#FFFFFF" p-id="35503"></path>
</svg>