<?xml version="1.0" standalone="no"?><!DOCTYPE svg PUBLIC "-//W3C//DTD SVG 1.1//EN" "http://www.w3.org/Graphics/SVG/1.1/DTD/svg11.dtd"><svg t="1761807690822" class="icon" viewBox="0 0 1077 1024" version="1.1" xmlns="http://www.w3.org/2000/svg" p-id="5298" xmlns:xlink="http://www.w3.org/1999/xlink" width="269.25" height="256"><path d="M168.151579 1021.507368c-85.126737 0-154.300632-66.775579-154.300632-148.978526V231.612632c0-82.189474 69.173895-148.992 154.314106-148.992h751.589052c86.460632 0 155.621053 66.789053 155.621053 148.992v639.609263c0 83.496421-69.160421 150.272-155.621053 150.272H168.151579z" fill="#1382F0" p-id="5299"></path><path d="M311.646316 580.176842h-55.417263a34.169263 34.169263 0 0 1-33.872842-33.872842v-55.430737a34.169263 34.169263 0 0 1 33.872842-33.859368h56.441263a34.169263 34.169263 0 0 1 33.872842 33.859368v55.430737c-1.024 18.458947-16.424421 33.859368-34.896842 33.859368m483.395368 0h-56.454737a34.169263 34.169263 0 0 1-33.859368-33.859368v-55.430737a34.169263 34.169263 0 0 1 33.872842-33.859368h56.454737a34.169263 34.169263 0 0 1 33.859368 33.859368v55.430737c-1.024 18.458947-15.400421 33.859368-33.872842 33.859368m-242.216421 0h-56.454737a34.169263 34.169263 0 0 1-33.859368-33.859368v-55.430737a34.169263 34.169263 0 0 1 33.872842-33.859368h56.454737a34.169263 34.169263 0 0 1 33.859368 33.859368v55.430737a34.169263 34.169263 0 0 1-33.872842 33.859368m-241.178947 204.247579h-55.417263a34.169263 34.169263 0 0 1-33.872842-33.872842v-55.417263a34.169263 34.169263 0 0 1 33.872842-33.872842h56.441263a34.169263 34.169263 0 0 1 33.872842 33.872842v55.417263c-1.024 18.472421-16.424421 33.872842-34.896842 33.872842m241.178947 0h-56.454737a34.169263 34.169263 0 0 1-33.859368-33.872842v-55.417263a34.169263 34.169263 0 0 1 33.872842-33.872842h56.454737a34.169263 34.169263 0 0 1 33.859368 33.872842v55.417263a34.169263 34.169263 0 0 1-33.872842 33.872842m242.216421 0h-56.454737a34.169263 34.169263 0 0 1-33.859368-33.872842v-55.417263a34.169263 34.169263 0 0 1 33.872842-33.872842h56.454737a34.169263 34.169263 0 0 1 33.859368 33.872842v55.417263c-1.024 18.472421-15.400421 33.872842-33.872842 33.872842" fill="#FFFFFF" p-id="5300"></path><path d="M11.951158 376.953263h1065.337263V191.218526c0-74.415158-60.335158-134.736842-134.736842-134.736842H146.688c-74.401684 0-134.736842 60.321684-134.736842 134.736842v185.734737z" fill="#DBC346" p-id="5301"></path><path d="M11.951158 376.953263h1065.337263v-48.235789H11.951158z" fill="#61A68B" p-id="5302"></path><path d="M338.324211 168.555789a52.560842 52.560842 0 0 1-52.33179-52.345263V57.707789C284.954947 28.968421 308.547368 5.389474 338.324211 5.389474a52.560842 52.560842 0 0 1 52.345263 52.331789V115.2c0 29.763368-23.605895 53.355789-52.345263 53.355789m412.591157 0a52.560842 52.560842 0 0 1-52.345263-52.331789V57.707789C697.532632 28.968421 721.152 5.389474 750.915368 5.389474a52.560842 52.560842 0 0 1 52.345264 52.331789V115.2c0 29.763368-23.605895 53.355789-52.345264 53.355789" fill="#61A68B" p-id="5303"></path><path d="M535.376842 553.458526c-4.096 0-9.229474-2.061474-12.314947-5.133473l-37.968842-37.982316c-7.181474-7.181474-7.181474-17.448421 0-24.629895 7.181474-7.181474 17.448421-7.181474 24.629894 0l25.653895 25.653895L635.957895 410.812632c7.194947-7.194947 17.448421-7.194947 24.643368 0 7.181474 7.181474 7.181474 17.434947 0 24.629894l-112.909474 112.896c-3.072 4.096-7.181474 5.12-12.314947 5.12" fill="#85B1B8" p-id="5304"></path></svg>