<?xml version="1.0" standalone="no"?>
<!DOCTYPE svg PUBLIC "-//W3C//DTD SVG 1.1//EN" "http://www.w3.org/Graphics/SVG/1.1/DTD/svg11.dtd"><svg t="1762067894301"
    class="icon" viewBox="0 0 1024 1024" version="1.1" xmlns="http://www.w3.org/2000/svg" p-id="11823"
    xmlns:xlink="http://www.w3.org/1999/xlink" width="256" height="256">
    <path
        d="M53.333333 53.333333m170.666667 0l576 0q170.666667 0 170.666667 170.666667l0 576q0 170.666667-170.666667 170.666667l-576 0q-170.666667 0-170.666667-170.666667l0-576q0-170.666667 170.666667-170.666667Z"
        fill="#2892df" p-id="11824"></path>
    <path
        d="M413.866667 298.922667h182.058666l-91.050666 91.008L413.866667 298.922667z m46.037333 293.034666a60.672 60.672 0 1 0 87.893333-2.218666l42.88-42.88a121.344 121.344 0 1 1-173.824 2.261333l-0.128-0.128 214.528-214.528 0.128 0.085333a121.344 121.344 0 1 1 0.085334 171.52l42.922666-42.88a60.672 60.672 0 1 0 0-85.845333l-214.528 214.613333zM335.36 377.344a60.672 60.672 0 1 0 0 85.845333l42.922667 42.88a121.344 121.344 0 1 1 0.085333-171.52l0.128-0.128 83.626667 83.626667-43.050667 43.093333-83.712-83.797333z"
        fill="#ffffff" p-id="11825"></path>
</svg>