<?xml version="1.0" encoding="UTF-8"?>
<svg width="100px" height="100px" viewBox="0 0 100 100" version="1.1" xmlns="http://www.w3.org/2000/svg" xmlns:xlink="http://www.w3.org/1999/xlink">
    <defs>
        <linearGradient x1="50%" y1="0%" x2="50%" y2="100%" id="linearGradient-1">
            <stop stop-color="#0CBEE6" offset="0%"></stop>
            <stop stop-color="#2486FF" offset="100%"></stop>
        </linearGradient>
    </defs>
    <g>
        <circle fill="url(#linearGradient-1)" cx="50" cy="50" r="50"></circle>
        <g transform="translate(13.157895, 22.807018)">
            <path d="M56.0535906,51.7379476 L17.6704709,51.7379476 C8.34390079,52.1322737 0.438401838,45.3842933 0.0178055563,36.660221 C-0.406704519,27.9378982 6.81115,20.5451578 16.1377201,20.1490822 C16.112781,9.54959904 24.8925122,0.751787454 36.2011912,0.0450969268 C47.5098702,-0.659406787 57.4618281,6.96810989 58.9426984,17.4777588 C68.4743331,18.8513398 75.2616703,26.868809 74.5036686,35.8600224 C73.7456669,44.8528977 65.7011828,51.7779225 56.055684,51.7379476 L56.0535906,51.7379476 Z M19.9114363,45.993452 L56.0535906,45.993452 C60.4423185,45.993452 64.4976457,43.8039272 66.6910085,40.2510557 C68.8850083,36.7121797 68.8850083,32.3026897 66.6910085,28.7638138 C64.4955523,25.2088429 60.4423185,23.0193182 56.0535906,23.02133 C55.2397036,23.02133 54.4585832,22.7185876 53.8829825,22.179407 C53.3091111,21.6473991 52.9841752,20.9151666 52.9820818,20.1490822 C52.9820818,12.2188231 46.1098243,5.78959257 37.6305451,5.78959257 C29.1508107,5.78959257 22.2768239,12.2188231 22.2768239,20.1490822 L22.2768239,20.7522053 C29.5362738,22.6868351 34.5465667,28.8833888 34.5589452,35.9437336 C34.5589452,36.9688241 33.9747888,37.9179885 33.024101,38.4315397 C32.0698636,38.9450909 30.9068297,38.9450909 29.9525922,38.4315397 C29.0107333,37.9299722 28.4244834,36.9783586 28.4198415,35.9437336 C28.4198415,30.4039237 23.6249892,25.9075735 17.7016902,25.891566 C11.7656486,25.891566 6.95404898,30.3919399 6.95404898,35.9437336 C6.95404898,41.493078 11.7656486,45.9955513 17.7016902,45.9955513 L18.8988559,45.9955513 C19.2340769,45.9419306 19.5779446,45.9419306 19.9135297,45.9955513 L19.9114363,45.993452 Z" fill="#FFFFFF"></path>
        </g>
    </g>
</svg>