<?xml version="1.0" standalone="no"?>
<!DOCTYPE svg PUBLIC "-//W3C//DTD SVG 1.1//EN" "http://www.w3.org/Graphics/SVG/1.1/DTD/svg11.dtd"><svg t="1762157439647"
    class="icon" viewBox="0 0 1024 1024" version="1.1" xmlns="http://www.w3.org/2000/svg" p-id="17013"
    xmlns:xlink="http://www.w3.org/1999/xlink" width="256" height="256">
    <path d="M512 512m-512 0a512 512 0 1 0 1024 0 512 512 0 1 0-1024 0Z" fill="#4ca5ff" p-id="17014"></path>
    <path
        d="M517.16096 719.91808c3.27168 0 6.60992-0.18944 9.97888-0.55808 32.128-3.73248 59.41248-25.49248 69.50912-55.47008a4.61312 4.61312 0 0 0-2.57024-5.65248 4.8896 4.8896 0 0 0-6.08256 1.88928c-0.128 0.19968-12.89216 20.17792-62.61248 26.65984a165.82656 165.82656 0 0 1-21.5296 1.46944c-34.84672-0.02048-50.34496-12.73856-50.49856-12.86144a4.89984 4.89984 0 0 0-6.2208-0.08192 4.5568 4.5568 0 0 0-0.98816 5.98016c15.13984 23.82848 42.37824 38.62528 71.0144 38.62528z m267.31008-298.35776c-0.43008 0-0.84992 0.10752-1.25952 0.10752-29.13792-122.11712-140.42112-213.20192-273.86368-213.20192-137.12384 0-250.97216 96.12288-276.18816 223.29344-24.53504 4.27008-43.20256 25.14432-43.20256 50.41152v101.07392c0 28.3392 23.44448 51.328 52.42368 51.328 16.33792 0 30.75584-7.47008 40.33024-18.9696 23.19872 59.35104 70.36928 107.22816 130.11968 132.49024 0.14848-0.29184 1.26976-2.41152 2.61632-4.09088 0.9472-1.18784 1.99168-2.1504 2.88768-2.1504a4.4032 4.4032 0 0 1 2.56 0.83968c-13.84448-9.94816-63.75936-61.17888-74.5984-132.6592-4.73088-31.488 19.59936-62.3616 47.91296-67.4816 45.50656-8.20224 90.79808-17.57184 136.27904-25.61024 28.91776-5.09952 48.6912-20.46976 60.81024-46.0544 2.82112-5.94944 6.9376-18.05824 8.79104-35.50208 0.512-2.60096 2.70848-4.58752 5.49888-4.58752 1.88928 0 3.49184 0.93184 4.52096 2.27328l1.24928-0.75776c17.96096 25.18528 53.49888 81.04448 58.61888 139.91936 5.85216 67.30752 2.60096 113.408-50.6112 160.56832a1.11616 1.11616 0 0 1-0.2304 0.19968 4.13696 4.13696 0 0 0-1.1776 2.88768c0 1.44896 0.8192 2.69824 1.9712 3.4304 0.41984 0.1792 0.8704 0.4096 1.3312 0.57856 0.32768 0.07168 0.70144 0.18944 1.03936 0.18944 0.34816 0 0.68096-0.1024 0.9984-0.18944 0.768-0.37888 1.44896-0.82944 2.21184-1.23904 53.83168-28.68224 95.09888-76.6208 114.17088-134.28224 7.71072 11.10016 19.79904 19.11808 33.8688 21.888-22.51776 99.2-113.89952 161.29024-227.072 170.71104-6.77888-16.29184-23.5008-27.85792-43.09504-27.85792-25.61536 0-46.39232 19.65056-46.39232 43.85792 0 24.192 20.77696 43.81184 46.39232 43.81184 20.64384 0 37.95456-12.8512 43.95008-30.47936 131.00032-10.33216 236.05248-85.74976 258.00192-202.92096 19.31776-7.8592 32.94208-26.25024 32.94208-47.7184V473.38496c0.00512-28.61056-24.0896-51.82464-53.80608-51.82464z m-48.35328 29.39392c-34.16064-89.65632-122.7008-153.68192-226.88256-153.68192-103.74144 0-191.9744 63.49312-226.46272 152.5504-1.69984-2.02752-3.7376-3.77856-5.71904-5.53472 19.5328-108.52864 116.01408-191.06816 232.2944-191.06816 115.7632 0 211.8912 81.72032 232.05376 189.4912-1.98144 2.62144-3.81952 5.3248-5.28384 8.2432z m-323.26656 297.14432c-0.03584 0.04096-0.03584 0.04096 0 0z m0 0"
        fill="#FFFFFF" p-id="17015"></path>
</svg>