<?xml version="1.0" standalone="no"?>
<!DOCTYPE svg PUBLIC "-//W3C//DTD SVG 1.1//EN" "http://www.w3.org/Graphics/SVG/1.1/DTD/svg11.dtd"><svg t="1762150385901"
    class="icon" viewBox="0 0 1024 1024" version="1.1" xmlns="http://www.w3.org/2000/svg" p-id="12774"
    xmlns:xlink="http://www.w3.org/1999/xlink" width="256" height="256">
    <path
        d="M0 365.76v292.48C0 902.08 121.92 1024 365.76 1024h292.48C902.08 1024 1024 902.08 1024 658.24V365.76C1024 121.92 902.08 0 658.24 0H365.76C121.92 0 0 121.92 0 365.76z"
        fill="#a5c5f9" p-id="12775"></path>
    <path
        d="M672 565.328A106.704 106.704 0 0 1 778.672 672 106.72 106.72 0 0 1 672 778.672 106.72 106.72 0 0 1 565.328 672 106.72 106.72 0 0 1 672 565.328z"
        fill="#397EF0" p-id="12776"></path>
    <path d="M714.672 672h-32v42.672h-21.344V672h-32L672 629.328 714.672 672z" fill="#FFFFFF" p-id="12777"></path>
    <path
        d="M728 539.296A144 144 0 0 0 552.256 752H416v24h-48V752h-24a48 48 0 0 1-48-48V392a48 48 0 0 1 48-48H416v-48a24 24 0 0 1 24-24h144a24 24 0 0 1 24 24v48h72a48 48 0 0 1 48 48v147.296zM464 320h96v24h-96V320z"
        fill="#397EF0" p-id="12778"></path>
    <path d="M464 440h-48V656h48V440z m144 0h-48v141.488a144.576 144.576 0 0 1 48-38.528V440z" fill="#FFFFFF"
        p-id="12779"></path>
</svg>