<?xml version="1.0" standalone="no"?>
<svg xmlns="http://www.w3.org/2000/svg" width="48" height="48"><rect width="48" height="48" opacity="0"></rect><g><path d="M33.79 24.67Q34.85 24.67 35.86 24.26Q36.86 23.86 37.68 23.04L42.58 18.1Q43.63 17.04 44.02 15.62Q44.4 14.21 44.02 12.79Q43.63 11.38 42.58 10.32L37.68 5.38Q36.62 4.32 35.21 3.96Q33.79 3.6 32.38 3.96Q30.96 4.32 29.9 5.38L24.96 10.37Q23.9 11.42 23.52 12.84Q23.14 14.26 23.52 15.67Q23.9 17.09 24.96 18.14L29.9 23.09Q30.67 23.86 31.68 24.26Q32.69 24.67 33.79 24.67ZM33.79 6.77Q34.27 6.77 34.75 6.98Q35.23 7.2 35.57 7.54L40.51 12.48Q41.23 13.2 41.23 14.23Q41.23 15.26 40.51 15.98L35.57 20.93Q34.8 21.7 33.79 21.7Q32.78 21.7 32.02 20.93L27.07 15.98Q26.35 15.26 26.35 14.23Q26.35 13.2 27.07 12.48L32.02 7.54Q32.74 6.77 33.79 6.77ZM37.3 44.21Q38.78 44.21 40.03 43.46Q41.28 42.72 42.02 41.47Q42.77 40.22 42.77 38.74L42.77 31.73Q42.77 30.24 42.02 28.97Q41.28 27.7 40.03 26.95Q38.78 26.21 37.3 26.21L30.29 26.21Q28.8 26.21 27.53 26.95Q26.26 27.7 25.51 28.97Q24.77 30.24 24.77 31.73L24.77 38.74Q24.77 40.22 25.51 41.47Q26.26 42.72 27.53 43.46Q28.8 44.21 30.29 44.21L37.3 44.21ZM37.3 29.23Q38.3 29.23 39.05 29.95Q39.79 30.67 39.79 31.73L39.79 38.74Q39.79 39.74 39.05 40.49Q38.3 41.23 37.3 41.23L30.29 41.23Q29.23 41.23 28.51 40.49Q27.79 39.74 27.79 38.74L27.79 31.73Q27.79 30.67 28.51 29.95Q29.23 29.23 30.29 29.23L37.3 29.23ZM16.27 44.21Q17.76 44.21 19.03 43.46Q20.3 42.72 21.05 41.47Q21.79 40.22 21.79 38.74L21.79 31.73Q21.79 30.24 21.05 28.97Q20.3 27.7 19.03 26.95Q17.76 26.21 16.27 26.21L9.26 26.21Q7.78 26.21 6.53 26.95Q5.28 27.7 4.54 28.97Q3.79 30.24 3.79 31.73L3.79 38.74Q3.79 40.22 4.54 41.47Q5.28 42.72 6.53 43.46Q7.78 44.21 9.26 44.21L16.27 44.21ZM16.27 29.23Q17.28 29.23 18.02 29.95Q18.77 30.67 18.77 31.73L18.77 38.74Q18.77 39.74 18.02 40.49Q17.28 41.23 16.27 41.23L9.26 41.23Q8.26 41.23 7.51 40.49Q6.77 39.74 6.77 38.74L6.77 31.73Q6.77 30.67 7.51 29.95Q8.26 29.23 9.26 29.23L16.27 29.23ZM16.27 23.23Q17.76 23.23 19.03 22.49Q20.3 21.74 21.05 20.47Q21.79 19.2 21.79 17.71L21.79 10.7Q21.79 9.22 21.05 7.97Q20.3 6.72 19.03 5.98Q17.76 5.23 16.27 5.23L9.26 5.23Q7.78 5.23 6.53 5.98Q5.28 6.72 4.54 7.97Q3.79 9.22 3.79 10.7L3.79 17.71Q3.79 19.2 4.54 20.47Q5.28 21.74 6.53 22.49Q7.78 23.23 9.26 23.23L16.27 23.23ZM16.27 8.21Q17.28 8.21 18.02 8.95Q18.77 9.7 18.77 10.7L18.77 17.71Q18.77 18.77 18.02 19.49Q17.28 20.21 16.27 20.21L9.26 20.21Q8.26 20.21 7.51 19.49Q6.77 18.77 6.77 17.71L6.77 10.7Q6.77 9.7 7.51 8.95Q8.26 8.21 9.26 8.21L16.27 8.21Z" fill="rgba(0,0,0,0.9019607843137255)"></path></g></svg>