<?xml version="1.0" standalone="no"?>
<svg xmlns="http://www.w3.org/2000/svg" width="48" height="48"><rect width="48" height="48" opacity="0"></rect><g><path d="M16.99 14.5Q15.55 14.5 14.52 15.53Q13.49 16.56 13.49 18Q13.49 19.44 14.52 20.47Q15.55 21.5 16.99 21.5Q18.43 21.5 19.46 20.47Q20.5 19.44 20.5 18Q20.5 16.56 19.46 15.53Q18.43 14.5 16.99 14.5ZM11.86 3.98Q9.74 3.98 7.92 5.04Q6.1 6.1 5.04 7.92Q3.98 9.74 3.98 11.86L3.98 36.1Q3.98 38.26 5.04 40.08Q6.1 41.9 7.92 42.96Q9.74 44.02 11.86 44.02L36.14 44.02Q38.26 44.02 40.06 42.96Q41.86 41.9 42.91 40.08Q43.97 38.26 43.97 36.1L43.97 11.86Q43.97 9.74 42.91 7.92Q41.86 6.1 40.06 5.04Q38.26 3.98 36.14 3.98L11.86 3.98ZM7.01 11.86Q7.01 9.79 8.42 8.4Q9.84 7.01 11.86 7.01L36.14 7.01Q38.16 7.01 39.58 8.42Q40.99 9.84 40.99 11.86L40.99 28.7L33.41 22.22Q32.06 21.02 30.29 20.95Q28.51 20.88 27.07 21.94L7.01 36.58L7.01 36.1L7.01 11.86ZM11.86 40.99Q10.8 40.99 9.86 40.56Q8.93 40.13 8.26 39.41L28.85 24.38Q29.47 23.95 30.19 23.98Q30.91 24 31.44 24.48L40.99 32.64L40.99 36.1Q40.99 38.11 39.58 39.55Q38.16 40.99 36.14 40.99L11.86 40.99Z" fill="rgba(0,0,0,1)"></path></g></svg>