<?xml version="1.0" standalone="no"?>
<svg xmlns="http://www.w3.org/2000/svg" width="48" height="48"><rect width="48" height="48" opacity="0"></rect><g><path d="M37.25 15.79L24.05 22.61L10.75 15.7L24.05 8.88ZM41.18 17.09Q41.71 16.85 41.9 16.3Q42.1 15.74 41.9 15.22Q41.71 14.69 41.18 14.45L24.72 5.86Q24.38 5.71 24.05 5.71Q23.71 5.71 23.38 5.86L6.82 14.3Q6.29 14.64 6.1 15.14Q5.9 15.65 6.1 16.18Q6.29 16.7 6.82 16.99L23.33 25.63Q23.62 25.82 24.02 25.82Q24.43 25.82 24.72 25.63L41.18 17.09Z" fill="rgba(0,0,0,1)"></path><path d="M41.14 25.63Q42 25.2 41.98 24.36Q41.95 23.52 41.28 23.02Q40.61 22.51 39.79 22.99L24 31.15L8.16 22.85Q7.3 22.46 6.65 22.97Q6 23.47 6 24.29Q6 25.1 6.82 25.54L23.33 34.22Q23.71 34.32 24.05 34.32Q24.38 34.32 24.72 34.18L41.14 25.63ZM41.14 33.6Q41.95 33.22 41.95 32.35Q41.95 31.49 41.28 30.98Q40.61 30.48 39.79 30.91L24 39.07L8.16 30.82Q7.34 30.38 6.67 30.86Q6 31.34 5.98 32.18Q5.95 33.02 6.82 33.46L23.33 42.1Q23.66 42.29 24.02 42.29Q24.38 42.29 24.72 42.1L41.14 33.6Z" fill="rgba(0,0,0,1)"></path></g></svg>