<?xml version="1.0" standalone="no"?><!DOCTYPE svg PUBLIC "-//W3C//DTD SVG 1.1//EN" "http://www.w3.org/Graphics/SVG/1.1/DTD/svg11.dtd"><svg t="1761817655775" class="icon" viewBox="0 0 1024 1024" version="1.1" xmlns="http://www.w3.org/2000/svg" p-id="23241" xmlns:xlink="http://www.w3.org/1999/xlink" width="256" height="256"><path d="M0 0m139.636364 0l744.727272 0q139.636364 0 139.636364 139.636364l0 744.727272q0 139.636364-139.636364 139.636364l-744.727272 0q-139.636364 0-139.636364-139.636364l0-744.727272q0-139.636364 139.636364-139.636364Z" fill="#4272ba" p-id="23242"></path><path d="M833.861818 293.701818l-103.470545-103.563636a65.629091 65.629091 0 0 0-46.731637-19.362909c-17.687273 0-34.304 6.842182-46.731636 19.362909l-433.338182 433.245091a26.624 26.624 0 0 0-7.540363 15.220363l-25.041455 184.459637a26.530909 26.530909 0 0 0 29.882182 29.882182l184.506182-24.99491a26.624 26.624 0 0 0 15.220363-7.540363l433.152-433.198546a65.629091 65.629091 0 0 0 19.362909-46.731636 65.303273 65.303273 0 0 0-19.269818-46.824727zM369.338182 776.378182l-140.939637 19.083636 19.083637-140.939636 307.013818-307.013818 121.856 121.902545-306.967273 306.967273z m426.914909-426.821818L713.960727 431.941818l-121.809454-121.856 82.245818-82.292363a12.893091 12.893091 0 0 1 9.169454-3.770182c2.048 0 5.911273 0.465455 9.216 3.770182l103.470546 103.470545a12.893091 12.893091 0 0 1 3.770182 9.216c0 2.001455-0.465455 5.864727-3.770182 9.169455z" fill="#FFFFFF" p-id="23243"></path></svg>