<?xml version="1.0" standalone="no"?>
<svg xmlns="http://www.w3.org/2000/svg" width="48" height="48"><rect width="48" height="48" opacity="0"></rect><g><path d="M9.98 3.98Q8.35 3.98 6.98 4.8Q5.62 5.62 4.8 6.98Q3.98 8.35 3.98 9.98L3.98 38.02Q3.98 39.65 4.8 41.02Q5.62 42.38 6.98 43.2Q8.35 44.02 9.98 44.02L38.02 44.02Q39.65 44.02 41.02 43.2Q42.38 42.38 43.2 41.02Q44.02 39.65 44.02 38.02L44.02 9.98Q44.02 8.35 43.2 6.98Q42.38 5.62 41.02 4.8Q39.65 3.98 38.02 3.98L9.98 3.98ZM32.69 15.94Q32.69 16.42 32.35 16.73Q32.02 17.04 31.58 17.04L16.42 17.04Q15.98 17.04 15.65 16.73Q15.31 16.42 15.31 15.94L15.31 7.06L32.69 7.06L32.69 15.94ZM40.99 38.02Q40.99 39.22 40.13 40.1Q39.26 40.99 38.02 40.99L9.98 40.99Q8.78 40.99 7.9 40.1Q7.01 39.22 7.01 38.02L7.01 9.98Q7.01 8.74 7.9 7.87Q8.78 7.01 9.98 7.01L12.34 7.01L12.34 15.94Q12.34 17.62 13.54 18.84Q14.74 20.06 16.42 20.06L31.58 20.06Q33.26 20.06 34.46 18.84Q35.66 17.62 35.66 15.94L35.66 7.01L38.02 7.01Q39.26 7.01 40.13 7.87Q40.99 8.74 40.99 9.98L40.99 38.02ZM14.02 30Q13.39 30 12.94 30.43Q12.48 30.86 12.48 31.49Q12.48 32.11 12.94 32.54Q13.39 32.98 14.02 32.98L33.98 32.98Q34.61 32.98 35.06 32.54Q35.52 32.11 35.52 31.49Q35.52 30.86 35.06 30.43Q34.61 30 33.98 30L14.02 30Z" fill="rgba(0,0,0,1)"></path></g></svg>