<?xml version="1.0" standalone="no"?>
<svg xmlns="http://www.w3.org/2000/svg" width="48" height="48"><rect width="48" height="48" opacity="0"></rect><g><path d="M24 2.02Q29.95 2.02 35.02 4.99Q40.08 7.97 43.06 13.01Q46.03 18.05 46.03 24Q46.03 29.95 43.06 35.02Q40.08 40.08 35.02 43.06Q29.95 46.03 24 46.03Q20.5 46.03 16.46 44.64Q12.24 43.1 8.98 40.01Q5.71 36.91 3.86 32.78Q2.02 28.66 2.02 24Q2.02 18.05 4.97 12.98Q7.92 7.92 12.98 4.97Q18.05 2.02 24 2.02ZM5.04 24Q5.04 27.74 6.41 31.1Q7.78 34.46 10.22 37.03Q12.67 39.6 15.94 41.14Q16.56 37.58 18.46 33.48Q20.35 29.38 24.1 26.06Q31.1 19.87 42.62 20.11Q41.71 15.84 39.02 12.38Q36.34 8.93 32.42 6.96Q28.51 4.99 24 4.99Q18.86 4.99 14.5 7.56Q10.13 10.13 7.58 14.5Q5.04 18.86 5.04 24ZM14.5 17.9Q14.5 19.34 15.5 20.35Q16.51 21.36 18 21.36Q19.44 21.36 20.45 20.35Q21.46 19.34 21.46 17.9Q21.46 16.42 20.45 15.41Q19.44 14.4 18 14.4Q16.51 14.4 15.5 15.41Q14.5 16.42 14.5 17.9ZM18.77 42.24Q21.46 43.01 24 43.01Q29.18 43.01 33.55 40.44Q37.92 37.87 40.46 33.5Q43.01 29.14 43.01 24Q43.01 23.52 42.96 23.09Q34.03 22.8 28.78 26.3Q23.52 29.81 21.43 34.18Q19.34 38.54 18.77 42.24Z" fill="rgba(0,0,0,1)"></path></g></svg>