<?xml version="1.0" standalone="no"?>
<!DOCTYPE svg PUBLIC "-//W3C//DTD SVG 1.1//EN" "http://www.w3.org/Graphics/SVG/1.1/DTD/svg11.dtd"><svg t="1761965533214"
    class="icon" viewBox="0 0 1024 1024" version="1.1" xmlns="http://www.w3.org/2000/svg" p-id="18584"
    xmlns:xlink="http://www.w3.org/1999/xlink" width="256" height="256">
    <path
        d="M806.0928 152.1664H221.7472c-80.1792 0-145.408 65.2288-145.408 145.408v447.0784c0 80.1792 65.2288 145.408 145.408 145.408h584.3456c80.1792 0 145.408-65.2288 145.408-145.408V297.6256c0-80.2304-65.2288-145.4592-145.408-145.4592z"
        fill="#6f98ff" p-id="18585"></path>
    <path
        d="M868.4544 427.5712c-259.7376 0-471.5008 205.312-481.9456 462.4896h419.584c80.1792 0 145.408-65.2288 145.408-145.408V434.7392a487.7824 487.7824 0 0 0-83.0464-7.168z"
        fill="#557fff" p-id="18586"></path>
    <path
        d="M200.0896 505.2416c221.6448 0 408.32-149.4528 464.8448-353.0752H221.7472c-80.1792 0-145.408 65.2288-145.408 145.408v191.5904a480.95232 480.95232 0 0 0 123.7504 16.0768z"
        fill="#9ab5ff" p-id="18587"></path>
    <path
        d="M457.9328 528.384a123.66336 123.66336 0 0 0 33.6896-84.9408c0-68.4544-55.7056-124.2112-124.2112-124.2112S243.3024 374.9376 243.3024 443.4432c0 32.8192 12.8512 62.72 33.6896 84.9408-45.8752 29.7472-76.288 81.3568-76.288 140.032 0 18.2272 14.7968 33.024 33.024 33.024s33.024-14.7968 33.024-33.024c0-55.552 45.2096-100.7616 100.7616-100.7616s100.7616 45.2096 100.7616 100.7616c0 18.2272 14.7968 33.024 33.024 33.024s33.024-14.7968 33.024-33.024c-0.0512-58.6752-30.5152-110.2848-76.3904-140.032zM309.2992 443.4432c0-32.0512 26.0608-58.1632 58.1632-58.1632s58.1632 26.112 58.1632 58.1632-26.0608 58.1632-58.1632 58.1632-58.1632-26.112-58.1632-58.1632zM807.68 577.2288H635.392c-18.2272 0-33.024 14.7968-33.024 33.024s14.7968 33.024 33.024 33.024h172.288c18.2272 0 33.024-14.7968 33.024-33.024s-14.7968-33.024-33.024-33.024zM635.3408 464.128h103.7824c18.2272 0 33.024-14.7968 33.024-33.024s-14.7968-33.024-33.024-33.024h-103.7824c-18.2272 0-33.024 14.7968-33.024 33.024s14.7968 33.024 33.024 33.024z"
        fill="#FFFFFF" p-id="18588"></path>
</svg>