<?xml version="1.0" standalone="no"?><!DOCTYPE svg PUBLIC "-//W3C//DTD SVG 1.1//EN" "http://www.w3.org/Graphics/SVG/1.1/DTD/svg11.dtd"><svg t="1761813787038" class="icon" viewBox="0 0 1024 1024" version="1.1" xmlns="http://www.w3.org/2000/svg" p-id="68782" xmlns:xlink="http://www.w3.org/1999/xlink" width="256" height="256"><path d="M196.923077 108.307692h354.461538a59.076923 59.076923 0 0 1 59.076923 59.076923v738.461539H137.846154V167.384615a59.076923 59.076923 0 0 1 59.076923-59.076923z" fill="#6ba2c2" p-id="68783"></path><path d="M856.615385 324.923077H610.461538v580.923077h305.23077V384a59.076923 59.076923 0 0 0-59.076923-59.076923z" fill="#3B5D92" p-id="68784"></path><path d="M236.307692 275.692308h265.846154v39.384615H236.307692zM236.307692 393.846154h265.846154v39.384615H236.307692zM679.384615 600.615385h177.23077v39.384615H679.384615zM369.230769 649.846154C431.763692 649.846154 482.461538 700.544 482.461538 763.076923V905.846154H256V763.076923C256 700.544 306.697846 649.846154 369.230769 649.846154z" fill="#FFFFFF" p-id="68785"></path></svg>