<?xml version="1.0" standalone="no"?><!DOCTYPE svg PUBLIC "-//W3C//DTD SVG 1.1//EN" "http://www.w3.org/Graphics/SVG/1.1/DTD/svg11.dtd"><svg t="1761964892543" class="icon" viewBox="0 0 1094 1024" version="1.1" xmlns="http://www.w3.org/2000/svg" p-id="10598" xmlns:xlink="http://www.w3.org/1999/xlink" width="273.5" height="256"><path d="M738.521956 306.532339a65.719441 65.719441 0 0 1 65.722449 0l257.566799 148.707039A65.722448 65.722448 0 0 1 1094.672428 512.156329v297.414078a65.722448 65.722448 0 0 1-32.861224 56.916952l-257.566799 148.707039a65.719441 65.719441 0 0 1-65.722449 0l-257.566798-148.707039A65.722448 65.722448 0 0 1 448.093933 809.570407V512.156329a65.722448 65.722448 0 0 1 32.861225-56.916951l257.566798-148.707039z" fill="#0F62FE" p-id="10599"></path><path d="M391.064206 11.868475a88.423368 88.423368 0 0 1 88.497049 0l346.815682 200.430311C853.758784 228.123419 870.625461 257.366811 870.625461 289.013069v400.86363c0 31.646258-16.866677 60.88965-44.248524 76.714282L479.561255 967.021293a88.418857 88.418857 0 0 1-88.497049 0L44.248524 766.590981C16.866677 750.766349 0 721.522957 0 689.876699v-400.86363c0-31.646258 16.866677-60.88965 44.248524-76.714283L391.064206 11.868475z" fill="#4e70d8" p-id="10600"></path><path d="M820.357742 222.714714L473.54206 22.282899a76.392497 76.392497 0 0 0-76.458659 0L50.266215 222.714714C26.608961 236.38609 12.029367 261.658287 12.029367 289.013069v400.86363c0 27.354781 14.579593 52.626978 38.238352 66.298354l346.815682 200.431815a76.394001 76.394001 0 0 0 76.458659 0L820.357742 756.175053c23.658758-13.671376 38.238351-38.943573 38.238352-66.298354v-400.86363c0-27.354781-14.579593-52.626978-38.238352-66.298355zM479.561255 11.868475a88.423368 88.423368 0 0 0-88.497049 0L44.248524 212.298786C16.866677 228.123419 0 257.366811 0 289.013069v400.86363c0 31.646258 16.866677 60.891154 44.248524 76.714282l346.815682 200.430312a88.418857 88.418857 0 0 0 88.497049 0l346.815682-200.430312C853.758784 750.767852 870.625461 721.522957 870.625461 689.876699v-400.86363c0-31.646258-16.866677-60.88965-44.248524-76.714283L479.561255 11.868475z" fill="#FFFFFF" fill-opacity=".3" p-id="10601"></path><path d="M425.753895 438.231356a215.766251 215.766251 0 0 0-83.402612 28.921606 215.883537 215.883537 0 0 0-64.857837 59.907753 33.564942 33.564942 0 0 0 1.599906 37.525612 33.519832 33.519832 0 0 0 35.391902 12.516556 33.52735 33.52735 0 0 0 20.586759-15.678776 151.888807 151.888807 0 0 1 97.840859-56.501939c44.158304-4.732052 88.382769 16.190025 131.417831 62.23694a33.525847 33.525847 0 0 0 46.952124 1.112716 33.572461 33.572461 0 0 0 2.028452-46.947613c-72.546107-77.529273-142.038259-87.970763-187.557384-83.092855z m22.693401 132.166659a64.33456 64.33456 0 0 0-35.770827 10.842971 64.432299 64.432299 0 0 0-9.770854 99.102439 64.336064 64.336064 0 0 0 70.159781 13.95557 64.373656 64.373656 0 0 0 28.887022-23.732438 64.43681 64.43681 0 0 0 10.836957-35.790376 64.409744 64.409744 0 0 0-18.844004-45.558221 64.34659 64.34659 0 0 0-45.525141-18.874077l0.027066 0.054132z m-16.696762-252.821214c-126.478272 5.828228-211.253735 96.1372-226.959577 114.178244a33.554417 33.554417 0 0 0 3.703541 46.822809 33.518328 33.518328 0 0 0 46.860401-2.784799c7.701802-8.841585 78.172844-86.555809 179.487183-91.194633 69.057591-3.172746 138.695598 28.256984 206.974287 93.468184a33.513817 33.513817 0 0 0 46.631842-1.851019 33.552913 33.552913 0 0 0-0.399976-46.694997c-81.98916-78.387869-168.245739-116.041292-256.297701-111.943789z" fill="#FFFFFF" p-id="10602"></path></svg>