<?xml version="1.0" standalone="no"?><!DOCTYPE svg PUBLIC "-//W3C//DTD SVG 1.1//EN" "http://www.w3.org/Graphics/SVG/1.1/DTD/svg11.dtd"><svg t="1761811485518" class="icon" viewBox="0 0 1134 1024" version="1.1" xmlns="http://www.w3.org/2000/svg" p-id="42150" xmlns:xlink="http://www.w3.org/1999/xlink" width="283.5" height="256"><path d="M542.47179 1017.240227l-517.545127-304.189789a49.219598 49.219598 0 0 1 0-84.497163l517.545127-303.344817a49.536462 49.536462 0 0 1 49.853326 0l518.073234 302.81671a49.219598 49.219598 0 0 1 0 84.497163l-517.545127 304.189789a49.008355 49.008355 0 0 1-50.381433 0.528107z" fill="#00D0FF" opacity=".8" p-id="42151"></path><path d="M542.47179 698.791542l-517.545127-304.189789a49.219598 49.219598 0 0 1 0-85.02527l517.545127-302.81671a49.536462 49.536462 0 0 1 49.853326 0l518.073234 302.81671a49.219598 49.219598 0 0 1 0 85.02527l-517.545127 304.189789a49.008355 49.008355 0 0 1-50.381433 0z" fill="#032CDD" opacity=".7" p-id="42152"></path></svg>