<?xml version="1.0" standalone="no"?><!DOCTYPE svg PUBLIC "-//W3C//DTD SVG 1.1//EN" "http://www.w3.org/Graphics/SVG/1.1/DTD/svg11.dtd"><svg t="1761965923447" class="icon" viewBox="0 0 1024 1024" version="1.1" xmlns="http://www.w3.org/2000/svg" p-id="22869" xmlns:xlink="http://www.w3.org/1999/xlink" width="256" height="256"><path d="M511.998 512.358m-495.08 0a495.08 495.08 0 1 0 990.16 0 495.08 495.08 0 1 0-990.16 0Z" fill="#95BAF9" p-id="22870"></path><path d="M721.132 143.848H302.306c-78.976 0-143.228 64.252-143.228 143.228v521.774h44.034l617.222-0.004h44.032V287.074c-0.002-78.976-64.254-143.226-143.234-143.226z" fill="#0A2BDE" p-id="22871"></path><path d="M349.148 436.512c0 16.224-13.152 29.376-29.378 29.376H297.8c-16.226 0-29.378-13.152-29.378-29.376V414.54c0-16.224 13.154-29.378 29.378-29.378h21.97c16.226 0 29.378 13.154 29.378 29.378v21.972zM552.086 436.512c0 16.224-13.154 29.376-29.378 29.376h-21.972c-16.224 0-29.378-13.152-29.378-29.376V414.54c0-16.224 13.154-29.378 29.378-29.378h21.972c16.224 0 29.378 13.154 29.378 29.378v21.972zM755.022 436.512c0 16.224-13.152 29.376-29.378 29.376h-21.97c-16.226 0-29.378-13.152-29.378-29.376V414.54c0-16.224 13.152-29.378 29.378-29.378h21.97c16.226 0 29.378 13.154 29.378 29.378v21.972zM349.148 614.114c0 16.226-13.152 29.378-29.378 29.378H297.8c-16.226 0-29.378-13.152-29.378-29.378v-21.97c0-16.226 13.154-29.378 29.378-29.378h21.97c16.226 0 29.378 13.152 29.378 29.378v21.97zM755.022 614.114c0 16.226-13.152 29.378-29.378 29.378h-21.97c-16.226 0-29.378-13.152-29.378-29.378v-21.97c0-16.226 13.152-29.378 29.378-29.378h21.97c16.226 0 29.378 13.152 29.378 29.378v21.97zM561.118 522.602h-98.794c-35.622 0-64.602 28.982-64.602 64.604v220.86h228v-220.86c-0.002-35.622-28.984-64.604-64.604-64.604zM633.324 246.346c0 48.586-39.386 87.97-87.97 87.97h-66.856c-48.584 0-87.97-39.384-87.97-87.97V179.49c0-48.584 39.386-87.97 87.97-87.97h66.856c48.584 0 87.97 39.386 87.97 87.97v66.856z" fill="#FFFFFF" p-id="22872"></path><path d="M557.866 185.488h-18.714v-18.714c0-11.238-9.112-20.348-20.352-20.348h-14.158c-11.236 0-20.348 9.11-20.348 20.348v18.714h-18.716c-11.236 0-20.348 9.114-20.348 20.35v14.158c0 11.238 9.112 20.35 20.348 20.35h18.716v18.716c0 11.238 9.112 20.35 20.348 20.35h14.158c11.24 0 20.352-9.112 20.352-20.35v-18.716h18.714c11.236 0 20.35-9.112 20.35-20.35v-14.158c-0.002-11.236-9.114-20.35-20.35-20.35z" fill="#0A2BDE" p-id="22873"></path></svg>