<?xml version="1.0" standalone="no"?><!DOCTYPE svg PUBLIC "-//W3C//DTD SVG 1.1//EN" "http://www.w3.org/Graphics/SVG/1.1/DTD/svg11.dtd"><svg t="1761902330511" class="icon" viewBox="0 0 1024 1024" version="1.1" xmlns="http://www.w3.org/2000/svg" p-id="12643" xmlns:xlink="http://www.w3.org/1999/xlink" width="256" height="256"><path d="M154.27284 149.837606l2.303506-2.303506c196.346497-196.419624 514.74227-196.419624 711.088767 0.036563 196.346497 196.456188 196.346497 514.961651 0 711.417839a502.749411 502.749411 0 0 1-355.544383 147.314719L72.333827 1024a38.647718 38.647718 0 0 1-38.647718-38.647718l53.273155-161.611084c7.166464-21.718775 3.619796-45.156038-8.04399-64.827251A515.400414 515.400414 0 0 1 33.722672 659.424409a502.822538 502.822538 0 0 1 120.586732-509.696494v0.109691z" fill="#4159bb" p-id="12644"></path><path d="M691.136084 348.48761a38.428337 38.428337 0 0 0 40.475898 40.329643c12.797258 0.877526 25.411697-3.656359 34.771977-12.504749-0.073127 0-0.073127-0.073127-0.036564-0.146254a46.070128 46.070128 0 0 0 14.332929-33.967578 39.269299 39.269299 0 0 0-41.572806-40.951225 47.459544 47.459544 0 0 0-33.967578 13.63822 46.91109 46.91109 0 0 0-14.04042 33.638506zM245.425879 695.65893a8.409627 8.409627 0 0 0 8.263372 9.981861h66.106977a8.409627 8.409627 0 0 0 8.226808-6.837392l29.90902-156.163108h141.245162l-28.812112 153.055203a8.409627 8.409627 0 0 0 8.226808 9.945297h66.180105a8.409627 8.409627 0 0 0 8.226808-6.837392L623.859072 327.500107a8.409627 8.409627 0 0 0-8.226809-9.981861h-66.180104a8.409627 8.409627 0 0 0-8.226809 6.800828l-27.788331 144.68214H371.570276l27.057059-141.501107a8.409627 8.409627 0 0 0-8.263372-9.981861H324.439804a8.409627 8.409627 0 0 0-8.226808 6.837392L245.425879 695.622367z m382.162679 0a8.409627 8.409627 0 0 0 8.263372 9.981861h66.143541a8.409627 8.409627 0 0 0 8.226808-6.837392l50.677141-264.830108a8.409627 8.409627 0 0 0-8.263372-9.945297h-66.143541a8.409627 8.409627 0 0 0-8.226808 6.800828l-50.677141 264.830108z" fill="#FFFFFF" p-id="12645"></path></svg>