<?xml version="1.0" standalone="no"?>
<!DOCTYPE svg PUBLIC "-//W3C//DTD SVG 1.1//EN" "http://www.w3.org/Graphics/SVG/1.1/DTD/svg11.dtd"><svg t="1762152111313"
    class="icon" viewBox="0 0 1024 1024" version="1.1" xmlns="http://www.w3.org/2000/svg" p-id="50202"
    xmlns:xlink="http://www.w3.org/1999/xlink" width="256" height="256">
    <path
        d="M85.333333 85.333333m85.333334 0l682.666666 0q85.333333 0 85.333334 85.333334l0 682.666666q0 85.333333-85.333334 85.333334l-682.666666 0q-85.333333 0-85.333334-85.333334l0-682.666666q0-85.333333 85.333334-85.333334Z"
        fill="#3c98ee" p-id="50203"></path>
    <path
        d="M796.16 389.546667a4.266667 4.266667 0 0 0 4.266667-4.266667v-16.213333a4.266667 4.266667 0 0 1 4.266666-4.266667h34.133334a4.266667 4.266667 0 0 0 4.266666-4.266667V341.333333a21.333333 21.333333 0 0 0-13.653333-20.053333l-302.08-117.76a42.666667 42.666667 0 0 0-31.146667 0L194.56 321.706667a21.333333 21.333333 0 0 0-13.653333 19.626666v18.773334a4.266667 4.266667 0 0 0 4.266666 4.266666h34.133334a4.266667 4.266667 0 0 1 4.266666 4.266667V384a4.266667 4.266667 0 0 0 4.266667 4.266667z"
        fill="#FFFFFF" p-id="50204"></path>
    <path
        d="M180.906667 755.2m4.266666 0l653.226667 0q4.266667 0 4.266667 4.266667l0 59.733333q0 4.266667-4.266667 4.266667l-653.226667 0q-4.266667 0-4.266666-4.266667l0-59.733333q0-4.266667 4.266666-4.266667Z"
        fill="#FFFFFF" p-id="50205"></path>
    <path
        d="M838.826667 712.533333h-76.8a4.266667 4.266667 0 0 1-4.266667-4.266666v-277.76a4.266667 4.266667 0 0 0-4.266667-4.266667h-85.333333a4.266667 4.266667 0 0 0-4.266667 4.266667v277.76a4.266667 4.266667 0 0 1-4.266666 4.266666h-30.72a4.266667 4.266667 0 0 1-4.266667-4.266666v-277.76a4.266667 4.266667 0 0 0-4.266667-4.266667h-85.333333a4.266667 4.266667 0 0 0-4.266667 4.266667v277.76a4.266667 4.266667 0 0 1-4.266666 4.266666h-30.72a4.266667 4.266667 0 0 1-4.266667-4.266666v-277.76a4.266667 4.266667 0 0 0-4.266667-4.266667h-85.333333a4.266667 4.266667 0 0 0-4.266667 4.266667v277.76a4.266667 4.266667 0 0 1-4.266666 4.266666h-29.013334a4.266667 4.266667 0 0 1-4.266666-4.266666v-277.76a4.266667 4.266667 0 0 0-4.266667-4.266667h-85.333333a4.266667 4.266667 0 0 0-4.266667 4.266667v277.76a4.266667 4.266667 0 0 1-4.266667 4.266666h-76.8a4.266667 4.266667 0 0 0-4.266666 4.266667v17.92a4.266667 4.266667 0 0 0 4.266666 4.266667h653.653334a4.266667 4.266667 0 0 0 4.266666-4.266667v-17.92a4.266667 4.266667 0 0 0-4.266666-4.266667z"
        fill="#FFFFFF" p-id="50206"></path>
</svg>