<?xml version="1.0" standalone="no"?><!DOCTYPE svg PUBLIC "-//W3C//DTD SVG 1.1//EN" "http://www.w3.org/Graphics/SVG/1.1/DTD/svg11.dtd"><svg t="1761817309845" class="icon" viewBox="0 0 1052 1024" version="1.1" xmlns="http://www.w3.org/2000/svg" p-id="10493" xmlns:xlink="http://www.w3.org/1999/xlink" width="263" height="256"><path d="M7.111111 0m113.777778 0l796.444444 0q113.777778 0 113.777778 113.777778l0 796.444444q0 113.777778-113.777778 113.777778l-796.444444 0q-113.777778 0-113.777778-113.777778l0-796.444444q0-113.777778 113.777778-113.777778Z" fill="#72aaf5" p-id="10494"></path><path d="M513.962667 502.471111c-76.344889 0-136.647111-60.700444-136.647111-137.443555 0-76.8 60.302222-137.472 136.647111-137.472 76.288 0 136.618667 60.700444 136.618666 137.443555 0 73.500444-60.302222 137.472-136.618666 137.472z m76.288 171.548445C583.594667 686.364444 545.905778 796.444444 495.047111 796.444444c-41.443556 0-120.689778 0-149.390222-3.271111 0 0-82.488889-3.299556-82.488889-57.429333 0 0-3.299556-80.042667 47.616-137.443556 0 0 54.129778-70.229333 146.090667-70.229333l168.248889 6.229333s-21.504 115.057778-34.872889 139.719112z m58.396444-0.341334h58.567111a53.475556 53.475556 0 0 1 53.674667 53.333334 53.532444 53.532444 0 0 1-53.674667 53.333333h-58.595555a53.532444 53.532444 0 0 1-53.674667-53.333333 53.475556 53.475556 0 0 1 53.703111-53.333334z m9.784889-87.296h37.262222c18.830222 0 34.133333 15.189333 34.133334 33.934222 0 18.773333-15.303111 33.934222-34.133334 33.934223h-37.262222a34.076444 34.076444 0 0 1-34.190222-33.962667c0-18.716444 15.303111-33.905778 34.133333-33.905778h0.056889z" fill="#3048c2" p-id="10495"></path></svg>