<?xml version="1.0" standalone="no"?>
<svg xmlns="http://www.w3.org/2000/svg" width="48" height="48"><rect width="48" height="48" opacity="0"></rect><g><path d="M24.48 20.11Q24.29 20.21 24.24 20.4Q24.19 20.59 24.31 20.78Q24.43 20.98 24.62 21.02L30.86 22.7Q31.39 22.85 31.87 22.58Q32.35 22.32 32.45 21.79L33.84 15.55Q33.89 15.22 33.65 15.05Q33.41 14.88 33.12 15.02L31.68 15.84L26.74 7.15Q26.26 6.34 25.44 5.86Q24.62 5.38 23.76 5.42Q22.8 5.42 22.01 5.9Q21.22 6.38 20.78 7.2L14.83 17.9Q14.59 18.34 14.74 18.84Q14.88 19.34 15.31 19.54L19.15 21.7Q19.58 21.94 20.09 21.79Q20.59 21.65 20.78 21.22L22.75 17.62Q22.99 17.23 23.4 17.09Q23.81 16.94 24.22 17.09Q24.62 17.23 24.86 17.62L25.82 19.3L24.48 20.11ZM36.82 24.82Q36.58 24.38 36.1 24.24Q35.62 24.1 35.14 24.38L31.34 26.54Q30.91 26.78 30.79 27.26Q30.67 27.74 30.91 28.18L32.98 31.82Q33.22 32.21 33.14 32.64Q33.07 33.07 32.74 33.36Q32.4 33.65 31.92 33.65L29.9 33.65L29.9 32.06Q29.9 31.87 29.76 31.73Q29.62 31.58 29.4 31.56Q29.18 31.54 29.04 31.68L24.48 36.29Q24.1 36.67 24.1 37.22Q24.1 37.78 24.48 38.16L29.18 42.48Q29.42 42.67 29.71 42.55Q30 42.43 30 42.1L30 40.46L39.89 40.42Q40.8 40.42 41.57 39.96Q42.34 39.5 42.82 38.74Q43.3 37.97 43.27 37.03Q43.25 36.1 42.82 35.28L36.82 24.82ZM15.94 33.65Q15.5 33.65 15.17 33.38Q14.83 33.12 14.76 32.71Q14.69 32.3 14.88 31.92L15.74 30.29L17.14 31.1Q17.38 31.25 17.62 31.13Q17.86 31.01 17.9 30.77Q17.9 30.67 17.86 30.58L16.32 24.24Q16.18 23.71 15.72 23.45Q15.26 23.18 14.74 23.33L8.59 25.1Q8.26 25.2 8.23 25.51Q8.21 25.82 8.5 26.02L9.89 26.83L5.14 35.47Q4.7 36.24 4.73 37.13Q4.75 38.02 5.18 38.83Q5.66 39.6 6.43 40.06Q7.2 40.51 8.11 40.51L19.97 40.46Q20.5 40.46 20.83 40.1Q21.17 39.74 21.17 39.26L21.17 34.85Q21.17 34.37 20.81 34.01Q20.45 33.65 19.97 33.65L15.94 33.65Z" fill="rgba(255,255,255,1)"></path></g></svg>