<?xml version="1.0" standalone="no"?>
<svg xmlns="http://www.w3.org/2000/svg" width="48" height="48"><rect width="48" height="48" opacity="0"></rect><g><path d="M16.08 31.87Q12.38 28.18 9.6 24.31Q6.82 20.45 5.28 16.75Q3.89 20.4 3.89 24.1Q3.89 29.52 6.58 34.1Q9.26 38.69 13.85 41.38Q18.43 44.06 23.86 44.06Q27.74 44.06 31.2 42.67Q26.21 40.18 22.99 37.87Q19.78 35.57 16.08 31.87ZM7.2 13.1Q8.3 17.23 11.33 21.58Q14.35 25.92 18.19 29.76Q21.98 33.6 26.35 36.62Q30.72 39.65 34.85 40.8Q38.98 38.06 41.42 33.65Q43.87 29.23 43.87 24.1Q43.87 18.67 41.18 14.06Q38.5 9.46 33.89 6.77Q29.28 4.08 23.86 4.08Q18.72 4.08 14.33 6.53Q9.94 8.98 7.2 13.1Z" fill="rgba(255,255,255,1)"></path><path d="M43.01 37.54Q42.38 37.44 41.88 37.78Q41.38 38.11 41.28 38.74Q41.04 39.79 40.46 40.37Q39.7 41.14 38.26 41.23Q36.82 41.33 34.85 40.8Q33.98 41.33 33.07 41.81Q32.16 42.29 31.2 42.67Q35.14 44.26 37.78 44.26Q39.31 44.26 40.51 43.82Q41.71 43.39 42.58 42.48Q43.82 41.28 44.21 39.26Q44.3 38.64 43.97 38.14Q43.63 37.63 43.01 37.54ZM5.47 5.33Q3.79 7.06 3.72 10.01Q3.65 12.96 5.28 16.75Q5.62 15.98 5.98 15.24Q6.34 14.5 6.77 13.78L7.2 13.1Q6.67 11.14 6.74 9.67Q6.82 8.21 7.58 7.44Q7.87 7.15 8.23 6.98Q8.59 6.82 9.12 6.72Q9.74 6.58 10.06 6.07Q10.37 5.57 10.27 4.94Q10.13 4.32 9.6 3.98Q9.07 3.65 8.5 3.79Q6.67 4.13 5.47 5.33Z" fill="rgba(255,255,255,1)"></path></g></svg>