<?xml version="1.0" standalone="no"?>
<svg xmlns="http://www.w3.org/2000/svg" width="48" height="48"><rect width="48" height="48" opacity="0"></rect><g><path d="M30.34 17.86Q30 17.86 29.71 17.57Q29.42 17.28 29.42 16.94L29.42 6.34Q29.42 5.09 28.82 4.08Q28.22 3.07 27.22 2.47Q26.21 1.87 25.01 1.87Q23.81 1.87 22.78 2.47Q21.74 3.07 21.14 4.1Q20.54 5.14 20.54 6.34L20.54 16.94Q20.54 17.33 20.28 17.59Q20.02 17.86 19.68 17.86L14.4 17.86Q12.91 17.86 11.66 18.6Q10.42 19.34 9.67 20.59Q8.93 21.84 8.93 23.33L8.88 34.7Q8.88 37.63 8.47 39.91Q8.06 42.19 7.34 43.34Q6.96 43.97 7.08 44.62Q7.2 45.26 7.68 45.7Q8.16 46.13 8.83 46.13L35.42 46.13Q36.91 46.13 38.16 45.38Q39.41 44.64 40.15 43.37Q40.9 42.1 40.9 40.61L40.9 23.33Q40.9 21.84 40.15 20.59Q39.41 19.34 38.16 18.6Q36.91 17.86 35.42 17.86L30.34 17.86ZM19.63 20.83Q21.26 20.83 22.39 19.7Q23.52 18.58 23.52 16.94L23.52 6.34Q23.52 5.71 23.95 5.3Q24.38 4.9 24.96 4.9Q25.58 4.9 25.99 5.3Q26.4 5.71 26.4 6.34L26.4 16.94Q26.4 18.58 27.55 19.7Q28.7 20.83 30.34 20.83L35.42 20.83Q36.43 20.83 37.18 21.55Q37.92 22.27 37.92 23.33Q37.92 23.86 37.92 24.38L11.9 24.38L11.9 23.33Q11.9 22.27 12.65 21.55Q13.39 20.83 14.4 20.83L19.63 20.83ZM30.19 43.1Q31.44 39.94 31.44 36.86L31.44 30.86Q31.44 30.24 31.01 29.81Q30.58 29.38 29.95 29.38Q29.33 29.38 28.9 29.81Q28.46 30.24 28.46 30.86L28.46 36.86Q28.46 38.3 28.03 39.94Q27.6 41.57 26.88 43.1L20.21 43.1Q21.5 39.84 21.5 36.86L21.5 30.86Q21.5 30.24 21.07 29.81Q20.64 29.38 20.02 29.38Q19.39 29.38 18.94 29.81Q18.48 30.24 18.48 30.86L18.48 36.86Q18.48 38.35 18.07 39.96Q17.66 41.57 16.9 43.1L10.75 43.1Q11.9 39.74 11.9 34.7L11.9 27.36L37.92 27.36L37.92 40.61Q37.92 41.66 37.2 42.38Q36.48 43.1 35.42 43.1L30.19 43.1Z" fill="rgba(255,255,255,1)"></path></g></svg>