<?xml version="1.0" standalone="no"?>
<svg xmlns="http://www.w3.org/2000/svg" width="48" height="48"><rect width="48" height="48" opacity="0"></rect><g><path d="M24 31.01Q25.06 31.01 25.78 31.73Q26.5 32.45 26.5 33.5Q26.5 34.56 25.78 35.28Q25.06 36 24 36Q22.94 36 22.22 35.28Q21.5 34.56 21.5 33.5Q21.5 32.45 22.22 31.73Q22.94 31.01 24 31.01ZM24 29.04Q23.47 29.04 23.06 28.66Q22.66 28.27 22.56 27.74L21.5 14.64Q21.41 13.58 22.15 12.77Q22.9 11.95 24 11.95Q25.1 11.95 25.85 12.77Q26.59 13.58 26.5 14.64L25.44 27.74Q25.34 28.27 24.94 28.66Q24.53 29.04 24 29.04Z" fill="rgba(255,255,255,1)"></path><path d="M24 45.98Q29.95 45.98 35.02 43.03Q40.08 40.08 43.03 35.02Q45.98 29.95 45.98 24Q45.98 18.05 43.03 12.98Q40.08 7.92 35.02 4.97Q29.95 2.02 24 2.02Q18.05 2.02 12.98 4.99Q7.92 7.97 4.97 13.01Q2.02 18.05 2.02 24Q2.02 29.95 4.97 34.99Q7.92 40.03 12.98 43.01Q18.05 45.98 24 45.98ZM24 4.99Q29.14 4.99 33.5 7.56Q37.87 10.13 40.44 14.5Q43.01 18.86 43.01 24Q43.01 29.14 40.44 33.5Q37.87 37.87 33.5 40.44Q29.14 43.01 24 43.01Q18.86 43.01 14.5 40.44Q10.13 37.87 7.56 33.5Q4.99 29.14 4.99 24Q4.99 18.86 7.56 14.5Q10.13 10.13 14.5 7.56Q18.86 4.99 24 4.99Z" fill="rgba(255,255,255,1)"></path></g></svg>