<?xml version="1.0" standalone="no"?>
<svg xmlns="http://www.w3.org/2000/svg" width="48" height="48"><rect width="48" height="48" opacity="0"></rect><g><path d="M45.74 22.94Q43.54 18.96 40.08 16.03Q36.62 13.1 32.47 11.54Q28.32 9.98 24 9.98Q19.68 9.98 15.53 11.54Q11.38 13.1 7.92 16.03Q4.46 18.96 2.26 22.94Q2.02 23.38 2.02 23.88Q2.02 24.38 2.26 24.86Q4.46 28.8 7.92 31.78Q11.38 34.75 15.55 36.36Q19.73 37.97 24 37.97Q28.32 37.97 32.47 36.36Q36.62 34.75 40.08 31.8Q43.54 28.85 45.74 24.86Q45.98 24.38 45.98 23.88Q45.98 23.38 45.74 22.94ZM20.3 34.66Q15.7 33.6 11.74 30.82Q7.78 28.03 5.33 24L5.33 23.66Q8.26 18.77 13.32 15.89Q18.38 13.01 24 13.01Q29.71 13.01 34.75 15.91Q39.79 18.82 42.72 23.71L42.72 24.1Q40.27 28.13 36.34 30.89Q32.4 33.65 27.84 34.7Q24.1 35.52 20.3 34.66ZM23.95 35.23Q26.78 35.23 29.16 33.84Q31.54 32.45 32.93 30.05Q34.32 27.65 34.32 24.82Q34.32 21.98 32.93 19.61Q31.54 17.23 29.16 15.84Q26.78 14.45 23.95 14.45Q22.18 14.45 20.5 15.02Q20.02 15.22 20.02 15.41Q20.02 15.6 20.54 15.84Q21.65 16.37 22.32 17.4Q22.99 18.43 22.99 19.68Q22.99 21.46 21.74 22.7Q20.5 23.95 18.77 23.95Q17.66 23.95 16.7 23.4Q15.74 22.85 15.17 21.94Q14.78 21.36 14.45 21.36Q14.11 21.36 13.92 21.98Q13.54 23.42 13.54 24.82Q13.54 27.65 14.93 30.05Q16.32 32.45 18.72 33.84Q21.12 35.23 23.95 35.23Z" fill="rgba(255,255,255,1)"></path></g></svg>