<?xml version="1.0" standalone="no"?>
<svg xmlns="http://www.w3.org/2000/svg" width="48" height="48"><rect width="48" height="48" opacity="0"></rect><g><path d="M11.95 26.3Q12.91 27.26 14.35 27.26Q15.79 27.26 16.8 26.26Q17.81 25.25 17.81 23.81Q17.81 22.37 16.85 21.41Q15.84 20.4 14.42 20.4Q13.01 20.4 12 21.46Q10.99 22.46 10.97 23.88Q10.94 25.3 11.95 26.3ZM2.64 19.87Q1.3 24 2.59 27.84Q3.89 31.68 7.13 34.08Q10.37 36.48 14.5 36.48Q17.9 36.48 20.83 34.73Q23.76 32.98 25.39 30L28.37 33.07L30 33.07L33.36 28.94L34.37 28.94L37.82 33.07L39.17 33.07L45.46 25.34Q46.03 24.72 46.01 23.9Q45.98 23.09 45.36 22.46L41.62 18.86L25.87 18.86Q24.58 15.98 22.18 14.09Q19.78 12.19 16.7 11.66Q13.63 11.14 10.51 12.1Q7.73 12.96 5.64 15.02Q3.55 17.09 2.64 19.87ZM5.52 20.78Q6.43 17.81 9 16.15Q11.57 14.5 14.54 14.5Q17.76 14.5 20.3 16.54Q22.85 18.58 23.81 21.89L40.51 21.89L42.72 24.1L38.4 29.33L35.9 25.97L31.97 25.97L29.09 29.52L25.54 25.97L23.86 25.97Q23.04 29.38 20.35 31.44Q17.66 33.5 14.54 33.5Q11.33 33.5 8.86 31.66Q6.38 29.81 5.45 26.86Q4.51 23.9 5.52 20.78Z" fill="rgba(255,255,255,1)"></path></g></svg>