<?xml version="1.0" standalone="no"?>
<svg xmlns="http://www.w3.org/2000/svg" width="48" height="48"><rect width="48" height="48" opacity="0"></rect><g><path d="M24.1 36.72Q26.78 36.72 28.85 36.36Q30.91 36 33.17 35.52L33.31 35.47Q33.6 35.42 33.84 35.21Q34.08 34.99 34.22 34.75Q34.7 33.74 35.52 32.4Q36.34 31.06 36.82 30.53Q38.78 28.13 39.82 25.25Q40.85 22.37 40.85 19.3Q40.85 14.59 38.59 10.61Q36.34 6.62 32.45 4.25Q28.56 1.87 24 1.87Q19.44 1.87 15.55 4.22Q11.66 6.58 9.38 10.56Q7.1 14.54 7.1 19.25Q7.1 22.32 8.14 25.2Q9.17 28.08 11.14 30.48Q11.28 30.67 11.42 30.86Q11.95 31.68 12.72 32.81Q13.49 33.94 13.78 34.46Q13.92 34.75 14.14 34.94Q14.35 35.14 14.64 35.23L14.74 35.28Q15.41 35.47 16.82 35.81Q18.24 36.14 20.16 36.43Q22.08 36.72 24.1 36.72ZM15.94 32.4Q15.26 31.2 14.62 30.19Q13.97 29.18 13.3 28.61Q11.71 26.64 10.85 24.22Q9.98 21.79 9.98 19.3Q9.98 15.36 11.88 12.02Q13.78 8.69 16.99 6.74Q20.21 4.8 24 4.8Q27.79 4.8 30.98 6.77Q34.18 8.74 36.07 12.05Q37.97 15.36 37.97 19.3Q37.97 21.84 37.1 24.26Q36.24 26.69 34.61 28.66Q33.7 29.66 31.97 32.83Q31.15 33.02 29.93 33.24Q28.7 33.46 27.17 33.62Q25.63 33.79 24.1 33.79Q21.17 33.79 16.56 32.78L16.08 32.64ZM32.69 37.78Q27.98 38.64 23.88 38.62Q19.78 38.59 15.31 37.78Q15.22 37.73 15.12 37.82Q15.02 37.92 15.02 38.06Q15.22 40.32 16.44 42.14Q17.66 43.97 19.66 45.02Q21.65 46.08 24.14 46.08Q26.35 46.08 28.32 45.02Q30.29 43.97 31.51 42.14Q32.74 40.32 32.93 38.06Q32.98 37.97 32.88 37.87Q32.78 37.78 32.69 37.78Z" fill="rgba(255,255,255,1)"></path></g></svg>