<?xml version="1.0" standalone="no"?>
<svg xmlns="http://www.w3.org/2000/svg" width="48" height="48"><rect width="48" height="48" opacity="0"></rect><g><path d="M40.7 8.5Q40.7 6.48 39.7 4.75Q38.69 3.02 36.96 2.02Q35.23 1.01 33.22 1.01L13.25 1.01Q11.23 1.01 9.5 2.02Q7.78 3.02 6.77 4.75Q5.76 6.48 5.76 8.5L5.76 37.49Q5.76 39.5 6.77 41.23Q7.78 42.96 9.48 43.97Q11.18 44.98 13.2 44.98L37.2 44.98Q38.59 44.98 39.74 44.33Q40.9 43.68 41.57 42.55Q42.24 41.42 42.24 40.03Q42.24 38.98 41.83 38.04Q41.42 37.1 40.7 36.43L40.7 8.5ZM8.74 8.5Q8.74 6.67 10.06 5.35Q11.38 4.03 13.25 4.03L33.22 4.03Q35.09 4.03 36.41 5.35Q37.73 6.67 37.73 8.5L37.73 35.09L37.49 35.04Q37.34 34.99 37.2 34.99L13.2 34.99L13.2 38.02Q14.06 38.02 14.64 38.62Q15.22 39.22 15.22 40.03Q15.22 40.85 14.64 41.4Q14.06 41.95 13.2 41.95Q11.38 41.95 10.06 40.63Q8.74 39.31 8.74 37.49L8.74 8.5ZM17.86 41.95Q18.24 41.18 18.24 40.03Q18.24 39.5 18.14 39Q18.05 38.5 17.81 38.02L37.2 38.02Q38.06 38.02 38.66 38.62Q39.26 39.22 39.26 40.03Q39.26 40.85 38.66 41.4Q38.06 41.95 37.2 41.95L17.86 41.95ZM16.32 13.54Q16.51 13.54 16.63 13.42Q16.75 13.3 16.75 13.1L16.75 10.94Q16.75 10.75 16.63 10.66Q16.51 10.56 16.32 10.56L14.16 10.56Q13.97 10.56 13.85 10.66Q13.73 10.75 13.73 10.94L13.73 13.15Q13.73 13.3 13.85 13.42Q13.97 13.54 14.16 13.54L16.32 13.54ZM16.32 21.55Q16.51 21.55 16.63 21.43Q16.75 21.31 16.75 21.12L16.75 18.96Q16.75 18.77 16.63 18.65Q16.51 18.53 16.32 18.53L14.16 18.53Q13.97 18.53 13.85 18.65Q13.73 18.77 13.73 18.96L13.73 21.12Q13.73 21.31 13.85 21.43Q13.97 21.55 14.16 21.55L16.32 21.55ZM16.32 29.52Q16.51 29.52 16.63 29.42Q16.75 29.33 16.75 29.14L16.75 26.98Q16.75 26.78 16.63 26.66Q16.51 26.54 16.32 26.54L14.16 26.54Q13.97 26.54 13.85 26.66Q13.73 26.78 13.73 26.98L13.73 29.14Q13.73 29.33 13.85 29.42Q13.97 29.52 14.16 29.52L16.32 29.52ZM31.78 13.54Q32.4 13.54 32.83 13.1Q33.26 12.67 33.26 12.05Q33.26 11.42 32.83 10.99Q32.4 10.56 31.78 10.56L20.74 10.56Q20.11 10.56 19.68 10.99Q19.25 11.42 19.25 12.05Q19.25 12.67 19.68 13.1Q20.11 13.54 20.74 13.54L31.78 13.54ZM31.78 21.55Q32.4 21.55 32.83 21.1Q33.26 20.64 33.26 20.02Q33.26 19.39 32.83 18.96Q32.4 18.53 31.78 18.53L20.74 18.53Q20.11 18.53 19.68 18.96Q19.25 19.39 19.25 20.02Q19.25 20.64 19.68 21.1Q20.11 21.55 20.74 21.55L31.78 21.55ZM31.78 29.52Q32.4 29.52 32.83 29.09Q33.26 28.66 33.26 28.03Q33.26 27.41 32.83 26.98Q32.4 26.54 31.78 26.54L20.74 26.54Q20.11 26.54 19.68 26.98Q19.25 27.41 19.25 28.03Q19.25 28.66 19.68 29.09Q20.11 29.52 20.74 29.52L31.78 29.52Z" fill="rgba(255,255,255,1)"></path></g></svg>