<?xml version="1.0" standalone="no"?><!DOCTYPE svg PUBLIC "-//W3C//DTD SVG 1.1//EN" "http://www.w3.org/Graphics/SVG/1.1/DTD/svg11.dtd"><svg t="1760757503911" class="icon" viewBox="0 0 1024 1024" version="1.1" xmlns="http://www.w3.org/2000/svg" p-id="10278" xmlns:xlink="http://www.w3.org/1999/xlink" width="200" height="200"><path d="M727.04 0h-430.08C246.237867 0 204.8 43.2128 204.8 95.982933v832.034134C204.8 980.7872 246.237867 1024 296.96 1024h430.08C777.762133 1024 819.2 980.7872 819.2 928.017067V95.982933C819.2 43.2128 777.762133 0 727.04 0zM427.2128 48.605867h169.5744c8.3968 0 15.223467 7.099733 15.223467 15.837866 0 8.669867-6.826667 15.7696-15.223467 15.7696H427.2128a15.496533 15.496533 0 0 1-15.223467-15.7696c0-8.738133 6.826667-15.837867 15.223467-15.837866zM512 959.965867c-33.928533 0-61.44-28.672-61.44-63.965867 0-35.362133 27.511467-63.965867 61.44-63.965867s61.44 28.672 61.44 63.965867c0 35.362133-27.511467 64.034133-61.44 64.034133z m245.76-191.965867H266.24V128h491.52v640z" fill="#FFFFFF" p-id="10279"></path></svg>