<?xml version="1.0" standalone="no"?>
<svg xmlns="http://www.w3.org/2000/svg" width="48" height="48"><rect width="48" height="48" opacity="0"></rect><g><path d="M42.86 31.34Q42.53 30.96 42 30.79Q41.47 30.62 40.94 30.77Q38.74 31.39 36.5 31.42Q34.27 31.44 32.02 30.82Q27.6 29.57 24.5 26.14Q21.41 22.7 20.64 18.19Q20.11 15.12 20.74 12.12Q21.36 9.12 23.04 6.58Q23.33 6.14 23.33 5.59Q23.33 5.04 23.04 4.56Q22.7 4.13 22.2 3.94Q21.7 3.74 21.22 3.84Q15.94 4.85 11.93 8.28Q7.92 11.71 6.02 16.63Q4.13 21.55 4.94 26.93Q5.57 31.25 7.97 34.9Q10.37 38.54 14.02 40.94Q17.66 43.34 21.98 43.97Q26.16 44.64 30.22 43.58Q34.27 42.53 37.63 39.91Q40.99 37.3 43.1 33.36Q43.34 32.88 43.3 32.33Q43.25 31.78 42.86 31.34Z" fill="rgba(255,255,255,1)"></path></g></svg>