<?xml version="1.0" standalone="no"?><!DOCTYPE svg PUBLIC "-//W3C//DTD SVG 1.1//EN" "http://www.w3.org/Graphics/SVG/1.1/DTD/svg11.dtd"><svg t="1761913666908" class="icon" viewBox="0 0 1080 1024" version="1.1" xmlns="http://www.w3.org/2000/svg" p-id="12277" xmlns:xlink="http://www.w3.org/1999/xlink" width="270" height="256"><path d="M825.051429 139.534066a96.323516 96.323516 0 0 1 90.021978 108.926593l-34.658462 369.54022a94.973187 94.973187 0 0 1-92.722637 90.021978H230.906374a94.523077 94.523077 0 0 1-92.722638-90.021978l-31.957802-394.746374a90.021978 90.021978 0 0 1 94.072967-99.474285z" fill="#5197f2" p-id="12278"></path><path d="M910.122198 843.956044H363.238681a138.633846 138.633846 0 0 1-135.032967-130.981978L189.046154 136.833407a48.161758 48.161758 0 0 0-45.010989-45.010989H45.010989a45.010989 45.010989 0 0 1 0-90.021978h97.673846a138.633846 138.633846 0 0 1 135.032967 130.981978l39.159561 576.140659a48.611868 48.611868 0 0 0 45.010989 45.010989h548.233846a48.611868 48.611868 0 0 0 45.010989-45.010989l34.208351-363.238681a54.913407 54.913407 0 0 0-13.053186-41.86022 45.010989 45.010989 0 0 0-32.858022-15.303736H427.604396a45.010989 45.010989 0 0 1 0-90.021978h516.726153a135.032967 135.032967 0 0 1 99.474286 45.010989 145.385495 145.385495 0 0 1 36.008791 111.177142l-34.208351 360.087912a137.733626 137.733626 0 0 1-135.483077 129.181539z" fill="#ffffff" p-id="12279"></path><path d="M427.604396 956.483516m-67.516484 0a67.516484 67.516484 0 1 0 135.032967 0 67.516484 67.516484 0 1 0-135.032967 0Z" fill="#ffffff" p-id="12280"></path><path d="M832.703297 956.483516m-67.516484 0a67.516484 67.516484 0 1 0 135.032967 0 67.516484 67.516484 0 1 0-135.032967 0Z" fill="#ffffff" p-id="12281"></path></svg>