<?xml version="1.0" standalone="no"?>
<svg xmlns="http://www.w3.org/2000/svg" width="48" height="48"><rect width="48" height="48" opacity="0"></rect><g><path d="M23.66 43.78Q25.63 43.78 26.88 42.77Q28.13 41.76 28.46 40.32Q28.8 38.88 28.27 37.73Q27.89 36.72 27.31 36.1Q26.83 35.38 26.98 34.8Q27.12 34.22 27.77 33.91Q28.42 33.6 29.47 33.65Q33.02 33.89 36 32.9Q38.98 31.92 40.97 29.71Q42.96 27.5 43.58 24.14Q44.16 20.98 43.25 17.71Q42.34 14.45 40.7 12.34Q36.48 6.96 31.01 5.23Q25.54 3.5 20.47 4.54Q15.41 5.57 12.24 8.06Q8.83 10.7 6.53 14.66Q4.22 18.62 4.22 25.2Q4.22 29.14 6.7 33.5Q9.17 37.87 13.63 40.82Q18.1 43.78 23.66 43.78ZM14.06 10.46Q16.8 8.35 21.07 7.46Q25.34 6.58 30 8.04Q34.66 9.5 38.35 14.16Q39.6 15.79 40.32 18.48Q41.04 21.17 40.61 23.62Q39.89 27.5 36.98 29.23Q34.08 30.96 29.62 30.62Q26.93 30.48 25.49 31.73Q24.05 32.98 23.93 34.78Q23.81 36.58 24.91 37.87Q25.25 38.26 25.54 38.93Q25.63 39.12 25.56 39.58Q25.49 40.03 25.03 40.42Q24.58 40.8 23.66 40.8Q18.96 40.8 15.19 38.33Q11.42 35.86 9.31 32.18Q7.2 28.51 7.2 25.2Q7.2 19.54 9.17 16.13Q11.14 12.72 14.06 10.46ZM14.64 17.33Q13.54 17.33 12.74 18.1Q11.95 18.86 11.95 19.97Q11.95 21.07 12.74 21.86Q13.54 22.66 14.64 22.66Q15.74 22.66 16.54 21.86Q17.33 21.07 17.33 19.97Q17.33 18.86 16.54 18.1Q15.74 17.33 14.64 17.33ZM19.97 10.61Q18.86 10.61 18.1 11.4Q17.33 12.19 17.33 13.3Q17.33 14.4 18.1 15.19Q18.86 15.98 19.97 15.98Q21.07 15.98 21.86 15.19Q22.66 14.4 22.66 13.3Q22.66 12.19 21.86 11.4Q21.07 10.61 19.97 10.61ZM28.51 10.61Q27.41 10.61 26.62 11.4Q25.82 12.19 25.82 13.3Q25.82 14.4 26.62 15.19Q27.41 15.98 28.51 15.98Q29.62 15.98 30.38 15.19Q31.15 14.4 31.15 13.3Q31.15 12.19 30.38 11.4Q29.62 10.61 28.51 10.61ZM33.84 17.33Q32.74 17.33 31.94 18.1Q31.15 18.86 31.15 19.97Q31.15 21.07 31.94 21.86Q32.74 22.66 33.84 22.66Q34.94 22.66 35.74 21.86Q36.53 21.07 36.53 19.97Q36.53 18.86 35.74 18.1Q34.94 17.33 33.84 17.33Z" fill="rgba(255,255,255,1)"></path></g></svg>