<?xml version="1.0" standalone="no"?>
<svg xmlns="http://www.w3.org/2000/svg" width="48" height="48"><rect width="48" height="48" opacity="0"></rect><g><path d="M19.49 5.38Q19.49 4.75 19.06 4.37Q18.62 3.98 18.02 4.01Q17.42 4.03 17.04 4.51L10.8 12.05Q10.42 12.48 10.46 13.03Q10.51 13.58 10.9 13.97Q11.28 14.35 11.86 14.35L16.51 14.35L16.51 42.53Q16.51 43.15 16.94 43.58Q17.38 44.02 18 44.02Q18.62 44.02 19.06 43.58Q19.49 43.15 19.49 42.53L19.49 10.51L19.49 5.38ZM31.49 33.65L31.49 5.52Q31.49 4.9 31.06 4.44Q30.62 3.98 30 3.98Q29.38 3.98 28.94 4.44Q28.51 4.9 28.51 5.52L28.51 37.49L28.51 42.58Q28.51 43.2 28.94 43.61Q29.38 44.02 29.98 43.99Q30.58 43.97 30.96 43.49L37.2 35.95Q37.58 35.52 37.54 34.97Q37.49 34.42 37.1 34.03Q36.72 33.65 36.14 33.65Z" fill="rgba(255,255,255,1)"></path></g></svg>